<svg version="1.1" viewBox="0.0 0.0 1330.0 374.0" fill="none" stroke="none" stroke-linecap="square" stroke-miterlimit="10" xmlns:xlink="http://www.w3.org/1999/xlink" xmlns="http://www.w3.org/2000/svg"><clipPath id="p.0"><path d="m0 0l1330.0 0l0 374.0l-1330.0 0l0 -374.0z" clip-rule="nonzero"/></clipPath><g clip-path="url(#p.0)"><path fill="#000000" fill-opacity="0.0" d="m0 0l1330.0 0l0 374.0l-1330.0 0z" fill-rule="evenodd"/><path fill="#f3f3f3" d="m485.4252 6.7952757l51.3071 0l0 51.307087l-51.3071 0z" fill-rule="evenodd"/><path stroke="#999999" stroke-width="1.0" stroke-linejoin="round" stroke-linecap="butt" d="m485.4252 6.7952757l51.3071 0l0 51.307087l-51.3071 0z" fill-rule="evenodd"/><path fill="#000000" d="m511.0798 25.931314q2.2030945 0 3.3280945 1.75q1.125 1.75 1.140625 5.078127q0 3.34375 -1.125 5.09375q-1.125 1.734375 -3.3437195 1.734375q-2.203125 0 -3.34375 -1.78125q-1.140625 -1.78125 -1.140625 -5.046875q0 -3.328127 1.140625 -5.078127q1.140625 -1.75 3.34375 -1.75zm-3.140625 6.828127q0 2.921875 0.78125 4.265625q0.796875 1.34375 2.390625 1.34375q3.1093445 0 3.1093445 -5.609375q0 -5.593752 -3.1562195 -5.593752q-3.125 0 -3.125 5.593752z" fill-rule="nonzero"/><path fill="#f3f3f3" d="m536.7323 6.7952757l51.307068 0l0 51.307087l-51.307068 0z" fill-rule="evenodd"/><path stroke="#999999" stroke-width="1.0" stroke-linejoin="round" stroke-linecap="butt" d="m536.7323 6.7952757l51.307068 0l0 51.307087l-51.307068 0z" fill-rule="evenodd"/><path fill="#000000" d="m562.3869 25.931314q2.203125 0 3.328125 1.75q1.125 1.75 1.140625 5.078127q0 3.34375 -1.125 5.09375q-1.125 1.734375 -3.34375 1.734375q-2.203125 0 -3.34375 -1.78125q-1.140625 -1.78125 -1.140625 -5.046875q0 -3.328127 1.140625 -5.078127q1.140625 -1.75 3.34375 -1.75zm-3.140625 6.828127q0 2.921875 0.78125 4.265625q0.796875 1.34375 2.390625 1.34375q3.109375 0 3.109375 -5.609375q0 -5.593752 -3.15625 -5.593752q-3.125 0 -3.125 5.593752z" fill-rule="nonzero"/><path fill="#f3f3f3" d="m588.03937 6.7952757l51.307068 0l0 51.307087l-51.307068 0z" fill-rule="evenodd"/><path stroke="#999999" stroke-width="1.0" stroke-linejoin="round" stroke-linecap="butt" d="m588.03937 6.7952757l51.307068 0l0 51.307087l-51.307068 0z" fill-rule="evenodd"/><path fill="#000000" d="m613.694 25.931314q2.203125 0 3.328125 1.75q1.125 1.75 1.140625 5.078127q0 3.34375 -1.125 5.09375q-1.125 1.734375 -3.34375 1.734375q-2.203125 0 -3.34375 -1.78125q-1.140625 -1.78125 -1.140625 -5.046875q0 -3.328127 1.140625 -5.078127q1.140625 -1.75 3.34375 -1.75zm-3.140625 6.828127q0 2.921875 0.78125 4.265625q0.796875 1.34375 2.390625 1.34375q3.109375 0 3.109375 -5.609375q0 -5.593752 -3.15625 -5.593752q-3.125 0 -3.125 5.593752z" fill-rule="nonzero"/><path fill="#f3f3f3" d="m639.34644 6.7952757l51.30713 0l0 51.307087l-51.30713 0z" fill-rule="evenodd"/><path stroke="#999999" stroke-width="1.0" stroke-linejoin="round" stroke-linecap="butt" d="m639.34644 6.7952757l51.30713 0l0 51.307087l-51.30713 0z" fill-rule="evenodd"/><path fill="#000000" d="m665.00104 25.931314q2.203125 0 3.328125 1.75q1.125 1.75 1.140625 5.078127q0 3.34375 -1.125 5.09375q-1.125 1.734375 -3.34375 1.734375q-2.203125 0 -3.34375 -1.78125q-1.140625 -1.78125 -1.140625 -5.046875q0 -3.328127 1.140625 -5.078127q1.140625 -1.75 3.34375 -1.75zm-3.140625 6.828127q0 2.921875 0.78125 4.265625q0.796875 1.34375 2.390625 1.34375q3.109375 0 3.109375 -5.609375q0 -5.593752 -3.15625 -5.593752q-3.125 0 -3.125 5.593752z" fill-rule="nonzero"/><path fill="#f3f3f3" d="m690.65356 6.7952757l51.307068 0l0 51.307087l-51.307068 0z" fill-rule="evenodd"/><path stroke="#999999" stroke-width="1.0" stroke-linejoin="round" stroke-linecap="butt" d="m690.65356 6.7952757l51.307068 0l0 51.307087l-51.307068 0z" fill-rule="evenodd"/><path fill="#000000" d="m716.30817 25.931314q2.203125 0 3.328125 1.75q1.125 1.75 1.140625 5.078127q0 3.34375 -1.125 5.09375q-1.125 1.734375 -3.34375 1.734375q-2.203125 0 -3.34375 -1.78125q-1.140625 -1.78125 -1.140625 -5.046875q0 -3.328127 1.140625 -5.078127q1.140625 -1.75 3.34375 -1.75zm-3.140625 6.828127q0 2.921875 0.78125 4.265625q0.796875 1.34375 2.390625 1.34375q3.109375 0 3.109375 -5.609375q0 -5.593752 -3.15625 -5.593752q-3.125 0 -3.125 5.593752z" fill-rule="nonzero"/><path fill="#f3f3f3" d="m741.96063 6.7952757l51.307068 0l0 51.307087l-51.307068 0z" fill-rule="evenodd"/><path stroke="#999999" stroke-width="1.0" stroke-linejoin="round" stroke-linecap="butt" d="m741.96063 6.7952757l51.307068 0l0 51.307087l-51.307068 0z" fill-rule="evenodd"/><path fill="#000000" d="m767.61523 25.931314q2.203125 0 3.328125 1.75q1.125 1.75 1.140625 5.078127q0 3.34375 -1.125 5.09375q-1.125 1.734375 -3.34375 1.734375q-2.203125 0 -3.34375 -1.78125q-1.140625 -1.78125 -1.140625 -5.046875q0 -3.328127 1.140625 -5.078127q1.140625 -1.75 3.34375 -1.75zm-3.140625 6.828127q0 2.921875 0.78125 4.265625q0.796875 1.34375 2.390625 1.34375q3.109375 0 3.109375 -5.609375q0 -5.593752 -3.15625 -5.593752q-3.125 0 -3.125 5.593752z" fill-rule="nonzero"/><path fill="#f3f3f3" d="m793.2677 6.7952757l51.30713 0l0 51.307087l-51.30713 0z" fill-rule="evenodd"/><path stroke="#999999" stroke-width="1.0" stroke-linejoin="round" stroke-linecap="butt" d="m793.2677 6.7952757l51.30713 0l0 51.307087l-51.30713 0z" fill-rule="evenodd"/><path fill="#000000" d="m818.9223 25.931314q2.203125 0 3.328125 1.75q1.125 1.75 1.140625 5.078127q0 3.34375 -1.125 5.09375q-1.125 1.734375 -3.34375 1.734375q-2.203125 0 -3.34375 -1.78125q-1.140625 -1.78125 -1.140625 -5.046875q0 -3.328127 1.140625 -5.078127q1.140625 -1.75 3.34375 -1.75zm-3.140625 6.828127q0 2.921875 0.78125 4.265625q0.796875 1.34375 2.390625 1.34375q3.109375 0 3.109375 -5.609375q0 -5.593752 -3.15625 -5.593752q-3.125 0 -3.125 5.593752z" fill-rule="nonzero"/><path fill="#f3f3f3" d="m485.4252 58.102364l51.3071 0l0 51.307083l-51.3071 0z" fill-rule="evenodd"/><path stroke="#999999" stroke-width="1.0" stroke-linejoin="round" stroke-linecap="butt" d="m485.4252 58.102364l51.3071 0l0 51.307083l-51.3071 0z" fill-rule="evenodd"/><path fill="#000000" d="m511.0798 77.2384q2.2030945 0 3.3280945 1.75q1.125 1.75 1.140625 5.078125q0 3.34375 -1.125 5.09375q-1.125 1.734375 -3.3437195 1.734375q-2.203125 0 -3.34375 -1.78125q-1.140625 -1.78125 -1.140625 -5.046875q0 -3.328125 1.140625 -5.078125q1.140625 -1.75 3.34375 -1.75zm-3.140625 6.828125q0 2.921875 0.78125 4.265625q0.796875 1.34375 2.390625 1.34375q3.1093445 0 3.1093445 -5.609375q0 -5.59375 -3.1562195 -5.59375q-3.125 0 -3.125 5.59375z" fill-rule="nonzero"/><path fill="#cfe2f3" d="m536.7323 58.102364l51.307068 0l0 51.307083l-51.307068 0z" fill-rule="evenodd"/><path stroke="#999999" stroke-width="1.0" stroke-linejoin="round" stroke-linecap="butt" d="m536.7323 58.102364l51.307068 0l0 51.307083l-51.307068 0z" fill-rule="evenodd"/><path fill="#000000" d="m564.3869 77.47278l-3.609375 5.671875l0.046875 0.03125q0.671875 -0.453125 1.828125 -0.453125q1.734375 0 2.859375 1.171875q1.125 1.171875 1.171875 2.921875q0 1.828125 -1.234375 2.953125q-1.21875 1.109375 -3.0625 1.125q-1.859375 0 -3.0625 -1.140625q-1.203125 -1.15625 -1.234375 -2.953125q0 -1.046875 0.328125 -1.9375q0.34375 -0.90625 1.390625 -2.546875l2.984375 -4.84375l1.59375 0zm-4.953125 9.34375q0 1.234375 0.8125 2.03125q0.828125 0.796875 2.140625 0.828125q1.28125 0 2.109375 -0.796875q0.84375 -0.8125 0.84375 -2.0625q0 -1.234375 -0.8125 -2.046875q-0.796875 -0.8125 -2.15625 -0.8125q-1.25 0 -2.09375 0.78125q-0.828125 0.78125 -0.84375 2.078125z" fill-rule="nonzero"/><path fill="#cfe2f3" d="m588.03937 58.102364l51.307068 0l0 51.307083l-51.307068 0z" fill-rule="evenodd"/><path stroke="#999999" stroke-width="1.0" stroke-linejoin="round" stroke-linecap="butt" d="m588.03937 58.102364l51.307068 0l0 51.307083l-51.307068 0z" fill-rule="evenodd"/><path fill="#000000" d="m615.0065 77.47278l0 13.203125l-1.34375 0l0 -11.53125l-2.390625 2.09375l-0.828125 -1.015625l3.359375 -2.75l1.203125 0z" fill-rule="nonzero"/><path fill="#cfe2f3" d="m639.34644 58.102364l51.30713 0l0 51.307083l-51.30713 0z" fill-rule="evenodd"/><path stroke="#999999" stroke-width="1.0" stroke-linejoin="round" stroke-linecap="butt" d="m639.34644 58.102364l51.30713 0l0 51.307083l-51.30713 0z" fill-rule="evenodd"/><path fill="#000000" d="m661.12714 77.47278l0 13.203125l-1.34375 0l0 -11.53125l-2.390625 2.09375l-0.828125 -1.015625l3.359375 -2.75l1.203125 0zm12.544739 0l0 1.21875l-5.40625 0l-0.078125 3.984375q0.8125 -0.328125 1.78125 -0.328125q1.796875 0 2.96875 1.203125q1.171875 1.1875 1.203125 3.046875q0 1.875 -1.265625 3.078125q-1.25 1.203125 -3.171875 1.21875q-1.25 0 -2.265625 -0.609375q-1.015625 -0.609375 -1.546875 -1.734375l1.328125 -0.578125q0.859375 1.65625 2.59375 1.703125q1.25 0 2.109375 -0.875q0.859375 -0.875 0.875 -2.078125q0 -1.375 -0.921875 -2.25q-0.90625 -0.890625 -2.328125 -0.890625q-1.359375 0 -2.734375 0.734375l0.125 -6.84375l6.734375 0z" fill-rule="nonzero"/><path fill="#cfe2f3" d="m690.65356 58.102364l51.307068 0l0 51.307083l-51.307068 0z" fill-rule="evenodd"/><path stroke="#999999" stroke-width="1.0" stroke-linejoin="round" stroke-linecap="butt" d="m690.65356 58.102364l51.307068 0l0 51.307083l-51.307068 0z" fill-rule="evenodd"/><path fill="#000000" d="m717.62067 77.47278l0 13.203125l-1.34375 0l0 -11.53125l-2.390625 2.09375l-0.828125 -1.015625l3.359375 -2.75l1.203125 0z" fill-rule="nonzero"/><path fill="#cfe2f3" d="m741.96063 58.102364l51.307068 0l0 51.307083l-51.307068 0z" fill-rule="evenodd"/><path stroke="#999999" stroke-width="1.0" stroke-linejoin="round" stroke-linecap="butt" d="m741.96063 58.102364l51.307068 0l0 51.307083l-51.307068 0z" fill-rule="evenodd"/><path fill="#000000" d="m769.61523 77.47278l-3.609375 5.671875l0.046875 0.03125q0.671875 -0.453125 1.828125 -0.453125q1.734375 0 2.859375 1.171875q1.125 1.171875 1.171875 2.921875q0 1.828125 -1.234375 2.953125q-1.21875 1.109375 -3.0625 1.125q-1.859375 0 -3.0625 -1.140625q-1.203125 -1.15625 -1.234375 -2.953125q0 -1.046875 0.328125 -1.9375q0.34375 -0.90625 1.390625 -2.546875l2.984375 -4.84375l1.59375 0zm-4.953125 9.34375q0 1.234375 0.8125 2.03125q0.828125 0.796875 2.140625 0.828125q1.28125 0 2.109375 -0.796875q0.84375 -0.8125 0.84375 -2.0625q0 -1.234375 -0.8125 -2.046875q-0.796875 -0.8125 -2.15625 -0.8125q-1.25 0 -2.09375 0.78125q-0.828125 0.78125 -0.84375 2.078125z" fill-rule="nonzero"/><path fill="#f3f3f3" d="m793.2677 58.102364l51.30713 0l0 51.307083l-51.30713 0z" fill-rule="evenodd"/><path stroke="#999999" stroke-width="1.0" stroke-linejoin="round" stroke-linecap="butt" d="m793.2677 58.102364l51.30713 0l0 51.307083l-51.30713 0z" fill-rule="evenodd"/><path fill="#000000" d="m818.9223 77.2384q2.203125 0 3.328125 1.75q1.125 1.75 1.140625 5.078125q0 3.34375 -1.125 5.09375q-1.125 1.734375 -3.34375 1.734375q-2.203125 0 -3.34375 -1.78125q-1.140625 -1.78125 -1.140625 -5.046875q0 -3.328125 1.140625 -5.078125q1.140625 -1.75 3.34375 -1.75zm-3.140625 6.828125q0 2.921875 0.78125 4.265625q0.796875 1.34375 2.390625 1.34375q3.109375 0 3.109375 -5.609375q0 -5.59375 -3.15625 -5.59375q-3.125 0 -3.125 5.59375z" fill-rule="nonzero"/><path fill="#f3f3f3" d="m485.4252 109.40945l51.3071 0l0 51.30709l-51.3071 0z" fill-rule="evenodd"/><path stroke="#999999" stroke-width="1.0" stroke-linejoin="round" stroke-linecap="butt" d="m485.4252 109.40945l51.3071 0l0 51.30709l-51.3071 0z" fill-rule="evenodd"/><path fill="#000000" d="m511.0798 128.54549q2.2030945 0 3.3280945 1.75q1.125 1.75 1.140625 5.078125q0 3.34375 -1.125 5.09375q-1.125 1.734375 -3.3437195 1.734375q-2.203125 0 -3.34375 -1.78125q-1.140625 -1.78125 -1.140625 -5.046875q0 -3.328125 1.140625 -5.078125q1.140625 -1.75 3.34375 -1.75zm-3.140625 6.828125q0 2.921875 0.78125 4.265625q0.796875 1.34375 2.390625 1.34375q3.1093445 0 3.1093445 -5.609375q0 -5.59375 -3.1562195 -5.59375q-3.125 0 -3.125 5.59375z" fill-rule="nonzero"/><path fill="#cfe2f3" d="m536.7323 109.40945l51.307068 0l0 51.30709l-51.307068 0z" fill-rule="evenodd"/><path stroke="#999999" stroke-width="1.0" stroke-linejoin="round" stroke-linecap="butt" d="m536.7323 109.40945l51.307068 0l0 51.30709l-51.307068 0z" fill-rule="evenodd"/><path fill="#000000" d="m558.51294 128.77986l0 13.203125l-1.34375 0l0 -11.53125l-2.390625 2.09375l-0.828125 -1.015625l3.359375 -2.75l1.203125 0zm9.060364 -0.234375q2.203125 0 3.328125 1.75q1.125 1.75 1.140625 5.078125q0 3.34375 -1.125 5.09375q-1.125 1.734375 -3.34375 1.734375q-2.203125 0 -3.34375 -1.78125q-1.140625 -1.78125 -1.140625 -5.046875q0 -3.328125 1.140625 -5.078125q1.140625 -1.75 3.34375 -1.75zm-3.140625 6.828125q0 2.921875 0.78125 4.265625q0.796875 1.34375 2.390625 1.34375q3.109375 0 3.109375 -5.609375q0 -5.59375 -3.15625 -5.59375q-3.125 0 -3.125 5.59375z" fill-rule="nonzero"/><path fill="#cfe2f3" d="m588.03937 109.40945l51.307068 0l0 51.30709l-51.307068 0z" fill-rule="evenodd"/><path stroke="#999999" stroke-width="1.0" stroke-linejoin="round" stroke-linecap="butt" d="m588.03937 109.40945l51.307068 0l0 51.30709l-51.307068 0z" fill-rule="evenodd"/><path fill="#000000" d="m613.694 128.54549q1.84375 0 2.90625 0.953125q1.078125 0.953125 1.078125 2.59375q0 0.984375 -0.5 1.9375q-0.5 0.9375 -2.0 2.4375l-4.328125 4.28125l6.953125 0l0 1.234375l-8.40625 0l0 -1.546875q3.46875 -3.53125 5.25 -5.328125q1.78125 -1.8125 1.6875 -3.015625q0 -1.015625 -0.71875 -1.65625q-0.703125 -0.65625 -1.828125 -0.65625q-0.96875 0 -1.6875 0.5625q-0.703125 0.546875 -0.9375 1.515625l-1.421875 -0.15625q0.265625 -1.453125 1.359375 -2.296875q1.09375 -0.859375 2.59375 -0.859375z" fill-rule="nonzero"/><path fill="#cfe2f3" d="m639.34644 109.40945l51.30713 0l0 51.30709l-51.30713 0z" fill-rule="evenodd"/><path stroke="#999999" stroke-width="1.0" stroke-linejoin="round" stroke-linecap="butt" d="m639.34644 109.40945l51.30713 0l0 51.30709l-51.30713 0z" fill-rule="evenodd"/><path fill="#000000" d="m661.12714 128.77986l0 13.203125l-1.34375 0l0 -11.53125l-2.390625 2.09375l-0.828125 -1.015625l3.359375 -2.75l1.203125 0zm8.779114 -0.234375q1.640625 0 2.734375 0.953125q1.09375 0.953125 1.09375 2.46875q0 1.0 -0.625 1.84375q-0.609375 0.84375 -1.640625 1.1875q1.234375 0.3125 1.921875 1.25q0.6875 0.921875 0.6875 2.15625q0 1.671875 -1.1875 2.734375q-1.171875 1.0625 -3.015625 1.0625q-3.125 0 -4.171875 -2.65625l1.421875 -0.4375q0.359375 0.96875 1.03125 1.421875q0.6875 0.453125 1.828125 0.453125q1.140625 0 1.953125 -0.75q0.8125 -0.75 0.8125 -1.875q0 -2.640625 -3.625 -2.6875l-0.3125 0l0 -1.21875l0.515625 0q3.015625 0 3.0625 -2.4375q0 -1.078125 -0.640625 -1.65625q-0.625 -0.578125 -1.8125 -0.578125q-1.6875 0 -2.515625 1.453125l-1.171875 -0.59375q1.15625 -2.09375 3.65625 -2.09375z" fill-rule="nonzero"/><path fill="#cfe2f3" d="m690.65356 109.40945l51.307068 0l0 51.30709l-51.307068 0z" fill-rule="evenodd"/><path stroke="#999999" stroke-width="1.0" stroke-linejoin="round" stroke-linecap="butt" d="m690.65356 109.40945l51.307068 0l0 51.30709l-51.307068 0z" fill-rule="evenodd"/><path fill="#000000" d="m716.30817 128.54549q1.84375 0 2.90625 0.953125q1.078125 0.953125 1.078125 2.59375q0 0.984375 -0.5 1.9375q-0.5 0.9375 -2.0 2.4375l-4.328125 4.28125l6.953125 0l0 1.234375l-8.40625 0l0 -1.546875q3.46875 -3.53125 5.25 -5.328125q1.78125 -1.8125 1.6875 -3.015625q0 -1.015625 -0.71875 -1.65625q-0.703125 -0.65625 -1.828125 -0.65625q-0.96875 0 -1.6875 0.5625q-0.703125 0.546875 -0.9375 1.515625l-1.421875 -0.15625q0.265625 -1.453125 1.359375 -2.296875q1.09375 -0.859375 2.59375 -0.859375z" fill-rule="nonzero"/><path fill="#cfe2f3" d="m741.96063 109.40945l51.307068 0l0 51.30709l-51.307068 0z" fill-rule="evenodd"/><path stroke="#999999" stroke-width="1.0" stroke-linejoin="round" stroke-linecap="butt" d="m741.96063 109.40945l51.307068 0l0 51.30709l-51.307068 0z" fill-rule="evenodd"/><path fill="#000000" d="m763.7413 128.77986l0 13.203125l-1.34375 0l0 -11.53125l-2.390625 2.09375l-0.828125 -1.015625l3.359375 -2.75l1.203125 0zm9.060425 -0.234375q2.203125 0 3.328125 1.75q1.125 1.75 1.140625 5.078125q0 3.34375 -1.125 5.09375q-1.125 1.734375 -3.34375 1.734375q-2.203125 0 -3.34375 -1.78125q-1.140625 -1.78125 -1.140625 -5.046875q0 -3.328125 1.140625 -5.078125q1.140625 -1.75 3.34375 -1.75zm-3.140625 6.828125q0 2.921875 0.78125 4.265625q0.796875 1.34375 2.390625 1.34375q3.109375 0 3.109375 -5.609375q0 -5.59375 -3.15625 -5.59375q-3.125 0 -3.125 5.59375z" fill-rule="nonzero"/><path fill="#f3f3f3" d="m793.2677 109.40945l51.30713 0l0 51.30709l-51.30713 0z" fill-rule="evenodd"/><path stroke="#999999" stroke-width="1.0" stroke-linejoin="round" stroke-linecap="butt" d="m793.2677 109.40945l51.30713 0l0 51.30709l-51.30713 0z" fill-rule="evenodd"/><path fill="#000000" d="m818.9223 128.54549q2.203125 0 3.328125 1.75q1.125 1.75 1.140625 5.078125q0 3.34375 -1.125 5.09375q-1.125 1.734375 -3.34375 1.734375q-2.203125 0 -3.34375 -1.78125q-1.140625 -1.78125 -1.140625 -5.046875q0 -3.328125 1.140625 -5.078125q1.140625 -1.75 3.34375 -1.75zm-3.140625 6.828125q0 2.921875 0.78125 4.265625q0.796875 1.34375 2.390625 1.34375q3.109375 0 3.109375 -5.609375q0 -5.59375 -3.15625 -5.59375q-3.125 0 -3.125 5.59375z" fill-rule="nonzero"/><path fill="#f3f3f3" d="m485.4252 160.71654l51.3071 0l0 51.307083l-51.3071 0z" fill-rule="evenodd"/><path stroke="#999999" stroke-width="1.0" stroke-linejoin="round" stroke-linecap="butt" d="m485.4252 160.71654l51.3071 0l0 51.307083l-51.3071 0z" fill-rule="evenodd"/><path fill="#000000" d="m511.0798 179.85257q2.2030945 0 3.3280945 1.75q1.125 1.75 1.140625 5.078125q0 3.34375 -1.125 5.09375q-1.125 1.734375 -3.3437195 1.734375q-2.203125 0 -3.34375 -1.78125q-1.140625 -1.78125 -1.140625 -5.046875q0 -3.328125 1.140625 -5.078125q1.140625 -1.75 3.34375 -1.75zm-3.140625 6.828125q0 2.921875 0.78125 4.265625q0.796875 1.34375 2.390625 1.34375q3.1093445 0 3.1093445 -5.609375q0 -5.59375 -3.1562195 -5.59375q-3.125 0 -3.125 5.59375z" fill-rule="nonzero"/><path fill="#cfe2f3" d="m536.7323 160.71654l51.307068 0l0 51.307083l-51.307068 0z" fill-rule="evenodd"/><path stroke="#999999" stroke-width="1.0" stroke-linejoin="round" stroke-linecap="butt" d="m536.7323 160.71654l51.307068 0l0 51.307083l-51.307068 0z" fill-rule="evenodd"/><path fill="#000000" d="m565.8713 180.08694l0 1.21875l-5.40625 0l-0.078125 3.984375q0.8125 -0.328125 1.78125 -0.328125q1.796875 0 2.96875 1.203125q1.171875 1.1875 1.203125 3.046875q0 1.875 -1.265625 3.078125q-1.25 1.203125 -3.171875 1.21875q-1.25 0 -2.265625 -0.609375q-1.015625 -0.609375 -1.546875 -1.734375l1.328125 -0.578125q0.859375 1.65625 2.59375 1.703125q1.25 0 2.109375 -0.875q0.859375 -0.875 0.875 -2.078125q0 -1.375 -0.921875 -2.25q-0.90625 -0.890625 -2.328125 -0.890625q-1.359375 0 -2.734375 0.734375l0.125 -6.84375l6.734375 0z" fill-rule="nonzero"/><path fill="#cfe2f3" d="m588.03937 160.71654l51.307068 0l0 51.307083l-51.307068 0z" fill-rule="evenodd"/><path stroke="#999999" stroke-width="1.0" stroke-linejoin="round" stroke-linecap="butt" d="m588.03937 160.71654l51.307068 0l0 51.307083l-51.307068 0z" fill-rule="evenodd"/><path fill="#000000" d="m613.694 179.85257q1.5625 0 2.609375 0.96875q1.046875 0.96875 1.078125 2.484375q0 0.96875 -0.546875 1.8125q-0.53125 0.828125 -1.421875 1.140625l0 0.03125q1.109375 0.328125 1.78125 1.265625q0.671875 0.9375 0.671875 2.203125q0 1.609375 -1.21875 2.671875q-1.203125 1.0625 -2.953125 1.078125q-1.75 0 -2.96875 -1.078125q-1.21875 -1.09375 -1.21875 -2.671875q0 -1.28125 0.671875 -2.21875q0.671875 -0.953125 1.796875 -1.25l0 -0.03125q-0.84375 -0.296875 -1.40625 -1.125q-0.5625 -0.84375 -0.5625 -1.828125q0 -1.453125 1.0625 -2.453125q1.078125 -1.0 2.625 -1.0zm-2.359375 3.5625q0 1.0 0.6875 1.671875q0.703125 0.671875 1.671875 0.671875q1.0 0 1.671875 -0.671875q0.671875 -0.671875 0.671875 -1.671875q0 -0.984375 -0.65625 -1.640625q-0.65625 -0.671875 -1.703125 -0.6875q-1.0 0 -1.65625 0.671875q-0.640625 0.65625 -0.6875 1.65625zm-0.484375 6.15625q0 1.203125 0.8125 1.96875q0.8125 0.75 2.03125 0.75q1.265625 0 2.046875 -0.78125q0.78125 -0.78125 0.78125 -1.9375q0 -1.203125 -0.796875 -1.953125q-0.796875 -0.75 -2.046875 -0.75q-1.234375 0 -2.03125 0.765625q-0.796875 0.75 -0.796875 1.9375z" fill-rule="nonzero"/><path fill="#cfe2f3" d="m639.34644 160.71654l51.30713 0l0 51.307083l-51.30713 0z" fill-rule="evenodd"/><path stroke="#999999" stroke-width="1.0" stroke-linejoin="round" stroke-linecap="butt" d="m639.34644 160.71654l51.30713 0l0 51.307083l-51.30713 0z" fill-rule="evenodd"/><path fill="#000000" d="m661.12714 180.08694l0 13.203125l-1.34375 0l0 -11.53125l-2.390625 2.09375l-0.828125 -1.015625l3.359375 -2.75l1.203125 0zm9.060364 -0.234375q1.84375 0 2.90625 0.953125q1.078125 0.953125 1.078125 2.59375q0 0.984375 -0.5 1.9375q-0.5 0.9375 -2.0 2.4375l-4.328125 4.28125l6.953125 0l0 1.234375l-8.40625 0l0 -1.546875q3.46875 -3.53125 5.25 -5.328125q1.78125 -1.8125 1.6875 -3.015625q0 -1.015625 -0.71875 -1.65625q-0.703125 -0.65625 -1.828125 -0.65625q-0.96875 0 -1.6875 0.5625q-0.703125 0.546875 -0.9375 1.515625l-1.421875 -0.15625q0.265625 -1.453125 1.359375 -2.296875q1.09375 -0.859375 2.59375 -0.859375z" fill-rule="nonzero"/><path fill="#cfe2f3" d="m690.65356 160.71654l51.307068 0l0 51.307083l-51.307068 0z" fill-rule="evenodd"/><path stroke="#999999" stroke-width="1.0" stroke-linejoin="round" stroke-linecap="butt" d="m690.65356 160.71654l51.307068 0l0 51.307083l-51.307068 0z" fill-rule="evenodd"/><path fill="#000000" d="m716.30817 179.85257q1.5625 0 2.609375 0.96875q1.046875 0.96875 1.078125 2.484375q0 0.96875 -0.546875 1.8125q-0.53125 0.828125 -1.421875 1.140625l0 0.03125q1.109375 0.328125 1.78125 1.265625q0.671875 0.9375 0.671875 2.203125q0 1.609375 -1.21875 2.671875q-1.203125 1.0625 -2.953125 1.078125q-1.75 0 -2.96875 -1.078125q-1.21875 -1.09375 -1.21875 -2.671875q0 -1.28125 0.671875 -2.21875q0.671875 -0.953125 1.796875 -1.25l0 -0.03125q-0.84375 -0.296875 -1.40625 -1.125q-0.5625 -0.84375 -0.5625 -1.828125q0 -1.453125 1.0625 -2.453125q1.078125 -1.0 2.625 -1.0zm-2.359375 3.5625q0 1.0 0.6875 1.671875q0.703125 0.671875 1.671875 0.671875q1.0 0 1.671875 -0.671875q0.671875 -0.671875 0.671875 -1.671875q0 -0.984375 -0.65625 -1.640625q-0.65625 -0.671875 -1.703125 -0.6875q-1.0 0 -1.65625 0.671875q-0.640625 0.65625 -0.6875 1.65625zm-0.484375 6.15625q0 1.203125 0.8125 1.96875q0.8125 0.75 2.03125 0.75q1.265625 0 2.046875 -0.78125q0.78125 -0.78125 0.78125 -1.9375q0 -1.203125 -0.796875 -1.953125q-0.796875 -0.75 -2.046875 -0.75q-1.234375 0 -2.03125 0.765625q-0.796875 0.75 -0.796875 1.9375z" fill-rule="nonzero"/><path fill="#cfe2f3" d="m741.96063 160.71654l51.307068 0l0 51.307083l-51.307068 0z" fill-rule="evenodd"/><path stroke="#999999" stroke-width="1.0" stroke-linejoin="round" stroke-linecap="butt" d="m741.96063 160.71654l51.307068 0l0 51.307083l-51.307068 0z" fill-rule="evenodd"/><path fill="#000000" d="m771.0996 180.08694l0 1.21875l-5.40625 0l-0.078125 3.984375q0.8125 -0.328125 1.78125 -0.328125q1.796875 0 2.96875 1.203125q1.171875 1.1875 1.203125 3.046875q0 1.875 -1.265625 3.078125q-1.25 1.203125 -3.171875 1.21875q-1.25 0 -2.265625 -0.609375q-1.015625 -0.609375 -1.546875 -1.734375l1.328125 -0.578125q0.859375 1.65625 2.59375 1.703125q1.25 0 2.109375 -0.875q0.859375 -0.875 0.875 -2.078125q0 -1.375 -0.921875 -2.25q-0.90625 -0.890625 -2.328125 -0.890625q-1.359375 0 -2.734375 0.734375l0.125 -6.84375l6.734375 0z" fill-rule="nonzero"/><path fill="#f3f3f3" d="m793.2677 160.71654l51.30713 0l0 51.307083l-51.30713 0z" fill-rule="evenodd"/><path stroke="#999999" stroke-width="1.0" stroke-linejoin="round" stroke-linecap="butt" d="m793.2677 160.71654l51.30713 0l0 51.307083l-51.30713 0z" fill-rule="evenodd"/><path fill="#000000" d="m818.9223 179.85257q2.203125 0 3.328125 1.75q1.125 1.75 1.140625 5.078125q0 3.34375 -1.125 5.09375q-1.125 1.734375 -3.34375 1.734375q-2.203125 0 -3.34375 -1.78125q-1.140625 -1.78125 -1.140625 -5.046875q0 -3.328125 1.140625 -5.078125q1.140625 -1.75 3.34375 -1.75zm-3.140625 6.828125q0 2.921875 0.78125 4.265625q0.796875 1.34375 2.390625 1.34375q3.109375 0 3.109375 -5.609375q0 -5.59375 -3.15625 -5.59375q-3.125 0 -3.125 5.59375z" fill-rule="nonzero"/><path fill="#f3f3f3" d="m485.4252 212.02362l51.3071 0l0 51.3071l-51.3071 0z" fill-rule="evenodd"/><path stroke="#999999" stroke-width="1.0" stroke-linejoin="round" stroke-linecap="butt" d="m485.4252 212.02362l51.3071 0l0 51.3071l-51.3071 0z" fill-rule="evenodd"/><path fill="#000000" d="m511.0798 231.15967q2.2030945 0 3.3280945 1.75q1.125 1.75 1.140625 5.078125q0 3.34375 -1.125 5.09375q-1.125 1.734375 -3.3437195 1.734375q-2.203125 0 -3.34375 -1.78125q-1.140625 -1.78125 -1.140625 -5.046875q0 -3.328125 1.140625 -5.078125q1.140625 -1.75 3.34375 -1.75zm-3.140625 6.828125q0 2.921875 0.78125 4.265625q0.796875 1.34375 2.390625 1.34375q3.1093445 0 3.1093445 -5.609375q0 -5.59375 -3.1562195 -5.59375q-3.125 0 -3.125 5.59375z" fill-rule="nonzero"/><path fill="#cfe2f3" d="m536.7323 212.02362l51.307068 0l0 51.3071l-51.307068 0z" fill-rule="evenodd"/><path stroke="#999999" stroke-width="1.0" stroke-linejoin="round" stroke-linecap="butt" d="m536.7323 212.02362l51.307068 0l0 51.3071l-51.307068 0z" fill-rule="evenodd"/><path fill="#000000" d="m566.04315 231.39404l0 1.21875l-5.3125 11.984375l-1.515625 0l5.421875 -11.984375l-6.4375 0l0 -1.21875l7.84375 0z" fill-rule="nonzero"/><path fill="#cfe2f3" d="m588.03937 212.02362l51.307068 0l0 51.3071l-51.307068 0z" fill-rule="evenodd"/><path stroke="#999999" stroke-width="1.0" stroke-linejoin="round" stroke-linecap="butt" d="m588.03937 212.02362l51.307068 0l0 51.3071l-51.307068 0z" fill-rule="evenodd"/><path fill="#000000" d="m613.694 231.15967q1.90625 0 3.09375 1.1875q1.203125 1.1875 1.203125 2.921875q0 0.890625 -0.25 1.6875q-0.234375 0.78125 -0.90625 1.875l-3.546875 5.765625l-1.59375 0l3.609375 -5.671875l-0.046875 -0.03125q-0.703125 0.4375 -1.828125 0.4375q-1.671875 0 -2.859375 -1.15625q-1.171875 -1.15625 -1.171875 -2.921875q0 -1.78125 1.21875 -2.9375q1.234375 -1.15625 3.078125 -1.15625zm-2.953125 4.09375q0 1.234375 0.8125 2.046875q0.828125 0.796875 2.140625 0.796875q1.28125 0 2.109375 -0.796875q0.84375 -0.796875 0.84375 -2.046875q0 -1.234375 -0.8125 -2.046875q-0.796875 -0.8125 -2.15625 -0.8125q-1.25 0 -2.09375 0.78125q-0.84375 0.78125 -0.84375 2.078125z" fill-rule="nonzero"/><path fill="#cfe2f3" d="m639.34644 212.02362l51.30713 0l0 51.3071l-51.30713 0z" fill-rule="evenodd"/><path stroke="#999999" stroke-width="1.0" stroke-linejoin="round" stroke-linecap="butt" d="m639.34644 212.02362l51.30713 0l0 51.3071l-51.30713 0z" fill-rule="evenodd"/><path fill="#000000" d="m661.12714 231.39404l0 13.203125l-1.34375 0l0 -11.53125l-2.390625 2.09375l-0.828125 -1.015625l3.359375 -2.75l1.203125 0zm10.372864 0l0 13.203125l-1.34375 0l0 -11.53125l-2.390625 2.09375l-0.828125 -1.015625l3.359375 -2.75l1.203125 0z" fill-rule="nonzero"/><path fill="#cfe2f3" d="m690.65356 212.02362l51.307068 0l0 51.3071l-51.307068 0z" fill-rule="evenodd"/><path stroke="#999999" stroke-width="1.0" stroke-linejoin="round" stroke-linecap="butt" d="m690.65356 212.02362l51.307068 0l0 51.3071l-51.307068 0z" fill-rule="evenodd"/><path fill="#000000" d="m716.30817 231.15967q1.90625 0 3.09375 1.1875q1.203125 1.1875 1.203125 2.921875q0 0.890625 -0.25 1.6875q-0.234375 0.78125 -0.90625 1.875l-3.546875 5.765625l-1.59375 0l3.609375 -5.671875l-0.046875 -0.03125q-0.703125 0.4375 -1.828125 0.4375q-1.671875 0 -2.859375 -1.15625q-1.171875 -1.15625 -1.171875 -2.921875q0 -1.78125 1.21875 -2.9375q1.234375 -1.15625 3.078125 -1.15625zm-2.953125 4.09375q0 1.234375 0.8125 2.046875q0.828125 0.796875 2.140625 0.796875q1.28125 0 2.109375 -0.796875q0.84375 -0.796875 0.84375 -2.046875q0 -1.234375 -0.8125 -2.046875q-0.796875 -0.8125 -2.15625 -0.8125q-1.25 0 -2.09375 0.78125q-0.84375 0.78125 -0.84375 2.078125z" fill-rule="nonzero"/><path fill="#cfe2f3" d="m741.96063 212.02362l51.307068 0l0 51.3071l-51.307068 0z" fill-rule="evenodd"/><path stroke="#999999" stroke-width="1.0" stroke-linejoin="round" stroke-linecap="butt" d="m741.96063 212.02362l51.307068 0l0 51.3071l-51.307068 0z" fill-rule="evenodd"/><path fill="#000000" d="m771.2715 231.39404l0 1.21875l-5.3125 11.984375l-1.515625 0l5.421875 -11.984375l-6.4375 0l0 -1.21875l7.84375 0z" fill-rule="nonzero"/><path fill="#f3f3f3" d="m793.2677 212.02362l51.30713 0l0 51.3071l-51.30713 0z" fill-rule="evenodd"/><path stroke="#999999" stroke-width="1.0" stroke-linejoin="round" stroke-linecap="butt" d="m793.2677 212.02362l51.30713 0l0 51.3071l-51.30713 0z" fill-rule="evenodd"/><path fill="#000000" d="m818.9223 231.15967q2.203125 0 3.328125 1.75q1.125 1.75 1.140625 5.078125q0 3.34375 -1.125 5.09375q-1.125 1.734375 -3.34375 1.734375q-2.203125 0 -3.34375 -1.78125q-1.140625 -1.78125 -1.140625 -5.046875q0 -3.328125 1.140625 -5.078125q1.140625 -1.75 3.34375 -1.75zm-3.140625 6.828125q0 2.921875 0.78125 4.265625q0.796875 1.34375 2.390625 1.34375q3.109375 0 3.109375 -5.609375q0 -5.59375 -3.15625 -5.59375q-3.125 0 -3.125 5.59375z" fill-rule="nonzero"/><path fill="#f3f3f3" d="m485.4252 263.33072l51.3071 0l0 51.307068l-51.3071 0z" fill-rule="evenodd"/><path stroke="#999999" stroke-width="1.0" stroke-linejoin="round" stroke-linecap="butt" d="m485.4252 263.33072l51.3071 0l0 51.307068l-51.3071 0z" fill-rule="evenodd"/><path fill="#000000" d="m511.0798 282.46674q2.2030945 0 3.3280945 1.75q1.125 1.75 1.140625 5.078125q0 3.34375 -1.125 5.09375q-1.125 1.734375 -3.3437195 1.734375q-2.203125 0 -3.34375 -1.78125q-1.140625 -1.78125 -1.140625 -5.046875q0 -3.328125 1.140625 -5.078125q1.140625 -1.75 3.34375 -1.75zm-3.140625 6.828125q0 2.921875 0.78125 4.265625q0.796875 1.34375 2.390625 1.34375q3.1093445 0 3.1093445 -5.609375q0 -5.59375 -3.1562195 -5.59375q-3.125 0 -3.125 5.59375z" fill-rule="nonzero"/><path fill="#cfe2f3" d="m536.7323 263.33072l51.307068 0l0 51.307068l-51.307068 0z" fill-rule="evenodd"/><path stroke="#999999" stroke-width="1.0" stroke-linejoin="round" stroke-linecap="butt" d="m536.7323 263.33072l51.307068 0l0 51.307068l-51.307068 0z" fill-rule="evenodd"/><path fill="#000000" d="m562.10565 282.46674q1.640625 0 2.734375 0.953125q1.09375 0.953125 1.09375 2.46875q0 1.0 -0.625 1.84375q-0.609375 0.84375 -1.640625 1.1875q1.234375 0.3125 1.921875 1.25q0.6875 0.921875 0.6875 2.15625q0 1.671875 -1.1875 2.734375q-1.171875 1.0625 -3.015625 1.0625q-3.125 0 -4.171875 -2.65625l1.421875 -0.4375q0.359375 0.96875 1.03125 1.421875q0.6875 0.453125 1.828125 0.453125q1.140625 0 1.953125 -0.75q0.8125 -0.75 0.8125 -1.875q0 -2.640625 -3.625 -2.6875l-0.3125 0l0 -1.21875l0.515625 0q3.015625 0 3.0625 -2.4375q0 -1.078125 -0.640625 -1.65625q-0.625 -0.578125 -1.8125 -0.578125q-1.6875 0 -2.515625 1.453125l-1.171875 -0.59375q1.15625 -2.09375 3.65625 -2.09375z" fill-rule="nonzero"/><path fill="#cfe2f3" d="m588.03937 263.33072l51.307068 0l0 51.307068l-51.307068 0z" fill-rule="evenodd"/><path stroke="#999999" stroke-width="1.0" stroke-linejoin="round" stroke-linecap="butt" d="m588.03937 263.33072l51.307068 0l0 51.307068l-51.307068 0z" fill-rule="evenodd"/><path fill="#000000" d="m616.2721 282.7011l0 8.84375l1.890625 0l0 1.21875l-1.890625 0l0 3.140625l-1.34375 0l0 -3.140625l-5.71875 0l0 -1.53125l5.34375 -8.53125l1.71875 0zm-1.390625 1.34375l-4.546875 7.5l4.59375 0l0 -7.5l-0.046875 0z" fill-rule="nonzero"/><path fill="#cfe2f3" d="m639.34644 263.33072l51.30713 0l0 51.307068l-51.30713 0z" fill-rule="evenodd"/><path stroke="#999999" stroke-width="1.0" stroke-linejoin="round" stroke-linecap="butt" d="m639.34644 263.33072l51.30713 0l0 51.307068l-51.30713 0z" fill-rule="evenodd"/><path fill="#000000" d="m661.12714 282.7011l0 13.203125l-1.34375 0l0 -11.53125l-2.390625 2.09375l-0.828125 -1.015625l3.359375 -2.75l1.203125 0zm11.638489 0l0 8.84375l1.890625 0l0 1.21875l-1.890625 0l0 3.140625l-1.34375 0l0 -3.140625l-5.71875 0l0 -1.53125l5.34375 -8.53125l1.71875 0zm-1.390625 1.34375l-4.546875 7.5l4.59375 0l0 -7.5l-0.046875 0z" fill-rule="nonzero"/><path fill="#cfe2f3" d="m690.65356 263.33072l51.307068 0l0 51.307068l-51.307068 0z" fill-rule="evenodd"/><path stroke="#999999" stroke-width="1.0" stroke-linejoin="round" stroke-linecap="butt" d="m690.65356 263.33072l51.307068 0l0 51.307068l-51.307068 0z" fill-rule="evenodd"/><path fill="#000000" d="m718.8863 282.7011l0 8.84375l1.890625 0l0 1.21875l-1.890625 0l0 3.140625l-1.34375 0l0 -3.140625l-5.71875 0l0 -1.53125l5.34375 -8.53125l1.71875 0zm-1.390625 1.34375l-4.546875 7.5l4.59375 0l0 -7.5l-0.046875 0z" fill-rule="nonzero"/><path fill="#cfe2f3" d="m741.96063 263.33072l51.307068 0l0 51.307068l-51.307068 0z" fill-rule="evenodd"/><path stroke="#999999" stroke-width="1.0" stroke-linejoin="round" stroke-linecap="butt" d="m741.96063 263.33072l51.307068 0l0 51.307068l-51.307068 0z" fill-rule="evenodd"/><path fill="#000000" d="m767.334 282.46674q1.640625 0 2.734375 0.953125q1.09375 0.953125 1.09375 2.46875q0 1.0 -0.625 1.84375q-0.609375 0.84375 -1.640625 1.1875q1.234375 0.3125 1.921875 1.25q0.6875 0.921875 0.6875 2.15625q0 1.671875 -1.1875 2.734375q-1.171875 1.0625 -3.015625 1.0625q-3.125 0 -4.171875 -2.65625l1.421875 -0.4375q0.359375 0.96875 1.03125 1.421875q0.6875 0.453125 1.828125 0.453125q1.140625 0 1.953125 -0.75q0.8125 -0.75 0.8125 -1.875q0 -2.640625 -3.625 -2.6875l-0.3125 0l0 -1.21875l0.515625 0q3.015625 0 3.0625 -2.4375q0 -1.078125 -0.640625 -1.65625q-0.625 -0.578125 -1.8125 -0.578125q-1.6875 0 -2.515625 1.453125l-1.171875 -0.59375q1.15625 -2.09375 3.65625 -2.09375z" fill-rule="nonzero"/><path fill="#f3f3f3" d="m793.2677 263.33072l51.30713 0l0 51.307068l-51.30713 0z" fill-rule="evenodd"/><path stroke="#999999" stroke-width="1.0" stroke-linejoin="round" stroke-linecap="butt" d="m793.2677 263.33072l51.30713 0l0 51.307068l-51.30713 0z" fill-rule="evenodd"/><path fill="#000000" d="m818.9223 282.46674q2.203125 0 3.328125 1.75q1.125 1.75 1.140625 5.078125q0 3.34375 -1.125 5.09375q-1.125 1.734375 -3.34375 1.734375q-2.203125 0 -3.34375 -1.78125q-1.140625 -1.78125 -1.140625 -5.046875q0 -3.328125 1.140625 -5.078125q1.140625 -1.75 3.34375 -1.75zm-3.140625 6.828125q0 2.921875 0.78125 4.265625q0.796875 1.34375 2.390625 1.34375q3.109375 0 3.109375 -5.609375q0 -5.59375 -3.15625 -5.59375q-3.125 0 -3.125 5.59375z" fill-rule="nonzero"/><path fill="#f3f3f3" d="m485.4252 314.6378l51.3071 0l0 51.3071l-51.3071 0z" fill-rule="evenodd"/><path stroke="#999999" stroke-width="1.0" stroke-linejoin="round" stroke-linecap="butt" d="m485.4252 314.6378l51.3071 0l0 51.3071l-51.3071 0z" fill-rule="evenodd"/><path fill="#000000" d="m511.0798 333.77383q2.2030945 0 3.3280945 1.75q1.125 1.75 1.140625 5.078125q0 3.34375 -1.125 5.09375q-1.125 1.734375 -3.3437195 1.734375q-2.203125 0 -3.34375 -1.78125q-1.140625 -1.78125 -1.140625 -5.046875q0 -3.328125 1.140625 -5.078125q1.140625 -1.75 3.34375 -1.75zm-3.140625 6.828125q0 2.921875 0.78125 4.265625q0.796875 1.34375 2.390625 1.34375q3.1093445 0 3.1093445 -5.609375q0 -5.59375 -3.1562195 -5.59375q-3.125 0 -3.125 5.59375z" fill-rule="nonzero"/><path fill="#f3f3f3" d="m536.7323 314.6378l51.307068 0l0 51.3071l-51.307068 0z" fill-rule="evenodd"/><path stroke="#999999" stroke-width="1.0" stroke-linejoin="round" stroke-linecap="butt" d="m536.7323 314.6378l51.307068 0l0 51.3071l-51.307068 0z" fill-rule="evenodd"/><path fill="#000000" d="m562.3869 333.77383q2.203125 0 3.328125 1.75q1.125 1.75 1.140625 5.078125q0 3.34375 -1.125 5.09375q-1.125 1.734375 -3.34375 1.734375q-2.203125 0 -3.34375 -1.78125q-1.140625 -1.78125 -1.140625 -5.046875q0 -3.328125 1.140625 -5.078125q1.140625 -1.75 3.34375 -1.75zm-3.140625 6.828125q0 2.921875 0.78125 4.265625q0.796875 1.34375 2.390625 1.34375q3.109375 0 3.109375 -5.609375q0 -5.59375 -3.15625 -5.59375q-3.125 0 -3.125 5.59375z" fill-rule="nonzero"/><path fill="#f3f3f3" d="m588.03937 314.6378l51.307068 0l0 51.3071l-51.307068 0z" fill-rule="evenodd"/><path stroke="#999999" stroke-width="1.0" stroke-linejoin="round" stroke-linecap="butt" d="m588.03937 314.6378l51.307068 0l0 51.3071l-51.307068 0z" fill-rule="evenodd"/><path fill="#000000" d="m613.694 333.77383q2.203125 0 3.328125 1.75q1.125 1.75 1.140625 5.078125q0 3.34375 -1.125 5.09375q-1.125 1.734375 -3.34375 1.734375q-2.203125 0 -3.34375 -1.78125q-1.140625 -1.78125 -1.140625 -5.046875q0 -3.328125 1.140625 -5.078125q1.140625 -1.75 3.34375 -1.75zm-3.140625 6.828125q0 2.921875 0.78125 4.265625q0.796875 1.34375 2.390625 1.34375q3.109375 0 3.109375 -5.609375q0 -5.59375 -3.15625 -5.59375q-3.125 0 -3.125 5.59375z" fill-rule="nonzero"/><path fill="#f3f3f3" d="m639.34644 314.6378l51.30713 0l0 51.3071l-51.30713 0z" fill-rule="evenodd"/><path stroke="#999999" stroke-width="1.0" stroke-linejoin="round" stroke-linecap="butt" d="m639.34644 314.6378l51.30713 0l0 51.3071l-51.30713 0z" fill-rule="evenodd"/><path fill="#000000" d="m665.00104 333.77383q2.203125 0 3.328125 1.75q1.125 1.75 1.140625 5.078125q0 3.34375 -1.125 5.09375q-1.125 1.734375 -3.34375 1.734375q-2.203125 0 -3.34375 -1.78125q-1.140625 -1.78125 -1.140625 -5.046875q0 -3.328125 1.140625 -5.078125q1.140625 -1.75 3.34375 -1.75zm-3.140625 6.828125q0 2.921875 0.78125 4.265625q0.796875 1.34375 2.390625 1.34375q3.109375 0 3.109375 -5.609375q0 -5.59375 -3.15625 -5.59375q-3.125 0 -3.125 5.59375z" fill-rule="nonzero"/><path fill="#f3f3f3" d="m690.65356 314.6378l51.307068 0l0 51.3071l-51.307068 0z" fill-rule="evenodd"/><path stroke="#999999" stroke-width="1.0" stroke-linejoin="round" stroke-linecap="butt" d="m690.65356 314.6378l51.307068 0l0 51.3071l-51.307068 0z" fill-rule="evenodd"/><path fill="#000000" d="m716.30817 333.77383q2.203125 0 3.328125 1.75q1.125 1.75 1.140625 5.078125q0 3.34375 -1.125 5.09375q-1.125 1.734375 -3.34375 1.734375q-2.203125 0 -3.34375 -1.78125q-1.140625 -1.78125 -1.140625 -5.046875q0 -3.328125 1.140625 -5.078125q1.140625 -1.75 3.34375 -1.75zm-3.140625 6.828125q0 2.921875 0.78125 4.265625q0.796875 1.34375 2.390625 1.34375q3.109375 0 3.109375 -5.609375q0 -5.59375 -3.15625 -5.59375q-3.125 0 -3.125 5.59375z" fill-rule="nonzero"/><path fill="#f3f3f3" d="m741.96063 314.6378l51.307068 0l0 51.3071l-51.307068 0z" fill-rule="evenodd"/><path stroke="#999999" stroke-width="1.0" stroke-linejoin="round" stroke-linecap="butt" d="m741.96063 314.6378l51.307068 0l0 51.3071l-51.307068 0z" fill-rule="evenodd"/><path fill="#000000" d="m767.61523 333.77383q2.203125 0 3.328125 1.75q1.125 1.75 1.140625 5.078125q0 3.34375 -1.125 5.09375q-1.125 1.734375 -3.34375 1.734375q-2.203125 0 -3.34375 -1.78125q-1.140625 -1.78125 -1.140625 -5.046875q0 -3.328125 1.140625 -5.078125q1.140625 -1.75 3.34375 -1.75zm-3.140625 6.828125q0 2.921875 0.78125 4.265625q0.796875 1.34375 2.390625 1.34375q3.109375 0 3.109375 -5.609375q0 -5.59375 -3.15625 -5.59375q-3.125 0 -3.125 5.59375z" fill-rule="nonzero"/><path fill="#f3f3f3" d="m793.2677 314.6378l51.30713 0l0 51.3071l-51.30713 0z" fill-rule="evenodd"/><path stroke="#999999" stroke-width="1.0" stroke-linejoin="round" stroke-linecap="butt" d="m793.2677 314.6378l51.30713 0l0 51.3071l-51.30713 0z" fill-rule="evenodd"/><path fill="#000000" d="m818.9223 333.77383q2.203125 0 3.328125 1.75q1.125 1.75 1.140625 5.078125q0 3.34375 -1.125 5.09375q-1.125 1.734375 -3.34375 1.734375q-2.203125 0 -3.34375 -1.78125q-1.140625 -1.78125 -1.140625 -5.046875q0 -3.328125 1.140625 -5.078125q1.140625 -1.75 3.34375 -1.75zm-3.140625 6.828125q0 2.921875 0.78125 4.265625q0.796875 1.34375 2.390625 1.34375q3.109375 0 3.109375 -5.609375q0 -5.59375 -3.15625 -5.59375q-3.125 0 -3.125 5.59375z" fill-rule="nonzero"/></g></svg>