<svg version="1.1" viewBox="0.0 0.0 959.4776902887139 165.35958005249344" fill="none" stroke="none" stroke-linecap="square" stroke-miterlimit="10" xmlns:xlink="http://www.w3.org/1999/xlink" xmlns="http://www.w3.org/2000/svg"><clipPath id="p.0"><path d="m0 0l959.47766 0l0 165.35957l-959.47766 0l0 -165.35957z" clip-rule="nonzero"/></clipPath><g clip-path="url(#p.0)"><path fill="#000000" fill-opacity="0.0" d="m0 0l959.47766 0l0 165.35957l-959.47766 0z" fill-rule="evenodd"/><path fill="#cdcdce" fill-opacity="0.7673" d="m129.26718 80.99828l93.13385 0l0 43.496063l-93.13385 0z" fill-rule="evenodd"/><path stroke="#000000" stroke-width="1.0" stroke-linejoin="round" stroke-linecap="butt" d="m129.26718 80.99828l93.13385 0l0 43.496063l-93.13385 0z" fill-rule="evenodd"/><path fill="#000000" d="m160.69904 109.66631l1.765625 -13.0625l1.5 0l3.4375 6.484375l3.390625 -6.484375l1.53125 0l1.734375 13.0625l-1.859375 0l-1.328125 -10.65625l0.46875 0.078125l-3.921875 7.484375l-3.984375 -7.484375l0.453125 -0.078125l-1.3125 10.65625l-1.875 0zm17.88063 0.1875q-1.21875 0 -2.015625 -0.28125q-0.796875 -0.296875 -1.125 -0.515625l0.203125 -1.625q0.296875 0.25 1.046875 0.59375q0.765625 0.328125 1.8125 0.328125q0.890625 0 1.359375 -0.296875q0.46875 -0.296875 0.46875 -0.828125q0 -0.484375 -0.3125 -0.765625q-0.296875 -0.296875 -0.71875 -0.46875q-0.421875 -0.1875 -0.796875 -0.28125q-0.625 -0.171875 -1.296875 -0.421875q-0.65625 -0.265625 -1.125 -0.765625q-0.453125 -0.515625 -0.453125 -1.4375q0 -0.703125 0.328125 -1.328125q0.34375 -0.640625 1.09375 -1.03125q0.765625 -0.390625 2.015625 -0.390625q0.90625 0 1.484375 0.1875q0.578125 0.1875 1.0 0.40625l-0.203125 1.53125q-0.40625 -0.328125 -0.9375 -0.5625q-0.53125 -0.234375 -1.3125 -0.234375q-0.78125 0 -1.28125 0.296875q-0.484375 0.28125 -0.484375 0.9375q0 0.640625 0.515625 0.90625q0.53125 0.265625 1.609375 0.59375q0.328125 0.09375 0.765625 0.28125q0.453125 0.171875 0.875 0.46875q0.421875 0.296875 0.6875 0.78125q0.28125 0.484375 0.28125 1.203125q0 0.59375 -0.296875 1.234375q-0.28125 0.625 -1.046875 1.0625q-0.75 0.421875 -2.140625 0.421875zm8.817444 4.484375q-1.25 0 -2.234375 -0.3125q-0.984375 -0.3125 -1.546875 -0.921875q-0.5625 -0.609375 -0.5625 -1.5q0 -0.75 0.421875 -1.28125q0.421875 -0.53125 1.171875 -0.859375q-0.453125 -0.21875 -0.6875 -0.5q-0.21875 -0.296875 -0.21875 -0.65625q0 -0.421875 0.25 -0.765625q0.265625 -0.34375 0.828125 -0.5625q-0.75 -0.46875 -1.171875 -1.28125q-0.40625 -0.8125 -0.40625 -1.796875q0 -1.0 0.4375 -1.796875q0.453125 -0.8125 1.296875 -1.28125q0.84375 -0.484375 2.03125 -0.484375q0.640625 0 1.203125 0.1875q0.5625 0.1875 1.03125 0.515625q0.421875 -0.234375 1.0 -0.390625q0.578125 -0.15625 1.28125 -0.15625q0.046875 0 0.078125 0q0.03125 0 0.078125 0l-0.203125 1.109375q-0.125 0 -0.234375 0q-0.09375 0 -0.203125 0q-0.09375 0 -0.4375 0.03125q-0.328125 0.03125 -0.609375 0.109375q0.390625 0.4375 0.59375 1.0q0.21875 0.546875 0.21875 1.15625q0 1.046875 -0.453125 1.875q-0.453125 0.828125 -1.3125 1.3125q-0.84375 0.46875 -2.03125 0.46875q-0.328125 0 -0.640625 -0.03125q-0.3125 -0.046875 -0.59375 -0.140625q-0.421875 0.140625 -0.421875 0.484375q0 0.21875 0.234375 0.375q0.25 0.140625 0.796875 0.234375l2.4375 0.390625q1.484375 0.234375 2.28125 0.859375q0.8125 0.625 0.8125 1.765625q0 0.953125 -0.5625 1.578125q-0.546875 0.640625 -1.5625 0.953125q-1.015625 0.3125 -2.390625 0.3125zm0.15625 -1.5q1.28125 0 1.96875 -0.328125q0.703125 -0.328125 0.703125 -0.984375q0 -0.5 -0.4375 -0.796875q-0.4375 -0.28125 -1.25 -0.421875l-2.59375 -0.4375q-0.515625 0.21875 -0.90625 0.59375q-0.375 0.375 -0.375 0.875q0 0.796875 0.78125 1.140625q0.796875 0.359375 2.109375 0.359375zm-0.546875 -6.625q1.0625 0 1.625 -0.640625q0.5625 -0.640625 0.5625 -1.65625q0 -0.96875 -0.5625 -1.59375q-0.5625 -0.640625 -1.625 -0.640625q-1.0625 0 -1.609375 0.640625q-0.546875 0.625 -0.546875 1.59375q0 1.015625 0.546875 1.65625q0.546875 0.640625 1.609375 0.640625z" fill-rule="nonzero"/><path fill="#cdcdce" fill-opacity="0.7673" d="m114.1212 2.8513024l97.543304 0l0 43.496063l-97.543304 0z" fill-rule="evenodd"/><path stroke="#000000" stroke-width="1.0" stroke-linejoin="round" stroke-linecap="butt" d="m114.1212 2.8513024l97.543304 0l0 43.496063l-97.543304 0z" fill-rule="evenodd"/><path fill="#000000" d="m147.75778 31.519333l1.765625 -13.0625l1.5 0l3.4375 6.484375l3.390625 -6.484375l1.53125 0l1.734375 13.0625l-1.859375 0l-1.328125 -10.65625l0.46875 0.078125l-3.921875 7.484375l-3.984375 -7.484375l0.453125 -0.078125l-1.3125 10.65625l-1.875 0zm17.88063 0.1875q-1.21875 0 -2.015625 -0.28125q-0.796875 -0.296875 -1.125 -0.515625l0.203125 -1.625q0.296875 0.25 1.046875 0.59375q0.765625 0.328125 1.8125 0.328125q0.890625 0 1.359375 -0.296875q0.46875 -0.296875 0.46875 -0.828125q0 -0.484375 -0.3125 -0.765625q-0.296875 -0.296875 -0.71875 -0.46875q-0.421875 -0.1875 -0.796875 -0.28125q-0.625 -0.171875 -1.296875 -0.421875q-0.65625 -0.265625 -1.125 -0.765625q-0.453125 -0.515625 -0.453125 -1.4375q0 -0.703125 0.328125 -1.328125q0.34375 -0.640625 1.09375 -1.03125q0.765625 -0.390625 2.015625 -0.390625q0.90625 0 1.484375 0.1875q0.578125 0.1875 1.0 0.40625l-0.203125 1.53125q-0.40625 -0.328125 -0.9375 -0.5625q-0.53125 -0.234375 -1.3125 -0.234375q-0.78125 0 -1.28125 0.296875q-0.484375 0.28125 -0.484375 0.9375q0 0.640625 0.515625 0.90625q0.53125 0.265625 1.609375 0.59375q0.328125 0.09375 0.765625 0.28125q0.453125 0.171875 0.875 0.46875q0.421875 0.296875 0.6875 0.78125q0.28125 0.484375 0.28125 1.203125q0 0.59375 -0.296875 1.234375q-0.28125 0.625 -1.046875 1.0625q-0.75 0.421875 -2.140625 0.421875zm8.817444 4.484375q-1.25 0 -2.234375 -0.3125q-0.984375 -0.3125 -1.546875 -0.921875q-0.5625 -0.609375 -0.5625 -1.5q0 -0.75 0.421875 -1.28125q0.421875 -0.53125 1.171875 -0.859375q-0.453125 -0.21875 -0.6875 -0.5q-0.21875 -0.296875 -0.21875 -0.65625q0 -0.421875 0.25 -0.765625q0.265625 -0.34375 0.828125 -0.5625q-0.75 -0.46875 -1.171875 -1.28125q-0.40625 -0.8125 -0.40625 -1.796875q0 -1.0 0.4375 -1.796875q0.453125 -0.8125 1.296875 -1.28125q0.84375 -0.484375 2.03125 -0.484375q0.640625 0 1.203125 0.1875q0.5625 0.1875 1.03125 0.515625q0.421875 -0.234375 1.0 -0.390625q0.578125 -0.15625 1.28125 -0.15625q0.046875 0 0.078125 0q0.03125 0 0.078125 0l-0.203125 1.109375q-0.125 0 -0.234375 0q-0.09375 0 -0.203125 0q-0.09375 0 -0.4375 0.03125q-0.328125 0.03125 -0.609375 0.109375q0.390625 0.4375 0.59375 1.0q0.21875 0.546875 0.21875 1.15625q0 1.046875 -0.453125 1.875q-0.453125 0.828125 -1.3125 1.3125q-0.84375 0.46875 -2.03125 0.46875q-0.328125 0 -0.640625 -0.03125q-0.3125 -0.046875 -0.59375 -0.140625q-0.421875 0.140625 -0.421875 0.484375q0 0.21875 0.234375 0.375q0.25 0.140625 0.796875 0.234375l2.4375 0.390625q1.484375 0.234375 2.28125 0.859375q0.8125 0.625 0.8125 1.765625q0 0.953125 -0.5625 1.578125q-0.546875 0.640625 -1.5625 0.953125q-1.015625 0.3125 -2.390625 0.3125zm0.15625 -1.5q1.28125 0 1.96875 -0.328125q0.703125 -0.328125 0.703125 -0.984375q0 -0.5 -0.4375 -0.796875q-0.4375 -0.28125 -1.25 -0.421875l-2.59375 -0.4375q-0.515625 0.21875 -0.90625 0.59375q-0.375 0.375 -0.375 0.875q0 0.796875 0.78125 1.140625q0.796875 0.359375 2.109375 0.359375zm-0.546875 -6.625q1.0625 0 1.625 -0.640625q0.5625 -0.640625 0.5625 -1.65625q0 -0.96875 -0.5625 -1.59375q-0.5625 -0.640625 -1.625 -0.640625q-1.0625 0 -1.609375 0.640625q-0.546875 0.625 -0.546875 1.59375q0 1.015625 0.546875 1.65625q0.546875 0.640625 1.609375 0.640625z" fill-rule="nonzero"/><path fill="#000000" fill-opacity="0.0" d="m278.82016 50.475975c-16.788757 0 -25.183792 -6.4724426 -33.5775 -12.944881c-8.393707 -6.4724426 -16.786057 -12.944883 -33.572113 -12.944883" fill-rule="evenodd"/><path stroke="#000000" stroke-width="1.0" stroke-linejoin="round" stroke-linecap="butt" d="m278.82016 50.47597c-16.788757 0 -25.183807 -6.472439 -33.5775 -12.944878c-4.1968536 -3.2362213 -8.393372 -6.4724407 -13.638931 -8.899607c-2.6227722 -1.213583 -5.5078125 -2.2249012 -8.786285 -2.932825c-1.6392365 -0.35396004 -3.376831 -0.63207436 -5.229187 -0.8216953c-0.463089 -0.047405243 -0.93333435 -0.08928108 -1.411026 -0.12542915c-0.23884583 -0.018072128 -0.47955322 -0.034711838 -0.72213745 -0.049898148l-0.3587799 -0.020132065" fill-rule="evenodd"/><path fill="#000000" stroke="#000000" stroke-width="1.0" stroke-linecap="butt" d="m215.0963 24.681507l1.155426 -1.0928783l-3.1198425 1.0382328l3.0572968 1.2100639z" fill-rule="evenodd"/><path fill="#000000" fill-opacity="0.0" d="m567.7178 50.475975c-89.01395 0 -133.52005 -6.4724426 -178.02792 -12.944881c-44.507874 -6.4724426 -89.01752 -12.944883 -178.03505 -12.944883" fill-rule="evenodd"/><path stroke="#000000" stroke-width="1.0" stroke-linejoin="round" stroke-linecap="butt" d="m567.71783 50.47597c-89.01401 0 -133.52011 -6.472439 -178.02798 -12.944878c-22.253937 -3.2362213 -44.50833 -6.4724407 -72.326416 -8.899607c-13.909027 -1.213583 -29.209015 -2.2249012 -46.595306 -2.932825c-8.693146 -0.35396004 -17.907898 -0.63207436 -27.73114 -0.8216953c-4.911621 -0.09481239 -9.975372 -0.16749954 -15.202118 -0.21648788c-2.6133728 -0.024490356 -5.2674866 -0.043058395 -7.96373 -0.055501938c-1.3480988 -0.0062236786 -2.7067413 -0.010913849 -4.076065 -0.01404953l-0.7131958 -8.125305E-4" fill-rule="evenodd"/><path fill="#000000" stroke="#000000" stroke-width="1.0" stroke-linecap="butt" d="m215.08188 24.590115l1.1258698 -1.1233006l-3.0910492 1.1210632l3.0884857 1.1281013z" fill-rule="evenodd"/><path fill="#cdcdce" fill-opacity="0.7673" d="m272.2427 118.80406l104.72443 0l0 43.496063l-104.72443 0z" fill-rule="evenodd"/><path stroke="#000000" stroke-width="1.0" stroke-linejoin="round" stroke-linecap="butt" d="m272.2427 118.80406l104.72443 0l0 43.496063l-104.72443 0z" fill-rule="evenodd"/><path fill="#000000" d="m309.46985 147.47209l1.765625 -13.0625l1.5 0l3.4375 6.484375l3.390625 -6.484375l1.53125 0l1.734375 13.0625l-1.859375 0l-1.328125 -10.65625l0.46875 0.078125l-3.921875 7.484375l-3.984375 -7.484375l0.453125 -0.078125l-1.3125 10.65625l-1.875 0zm17.880646 0.1875q-1.21875 0 -2.015625 -0.28125q-0.796875 -0.296875 -1.125 -0.515625l0.203125 -1.625q0.296875 0.25 1.046875 0.59375q0.765625 0.328125 1.8125 0.328125q0.890625 0 1.359375 -0.296875q0.46875 -0.296875 0.46875 -0.828125q0 -0.484375 -0.3125 -0.765625q-0.296875 -0.296875 -0.71875 -0.46875q-0.421875 -0.1875 -0.796875 -0.28125q-0.625 -0.171875 -1.296875 -0.421875q-0.65625 -0.265625 -1.125 -0.765625q-0.453125 -0.515625 -0.453125 -1.4375q0 -0.703125 0.328125 -1.328125q0.34375 -0.640625 1.09375 -1.03125q0.765625 -0.390625 2.015625 -0.390625q0.90625 0 1.484375 0.1875q0.578125 0.1875 1.0 0.40625l-0.203125 1.53125q-0.40625 -0.328125 -0.9375 -0.5625q-0.53125 -0.234375 -1.3125 -0.234375q-0.78125 0 -1.28125 0.296875q-0.484375 0.28125 -0.484375 0.9375q0 0.640625 0.515625 0.90625q0.53125 0.265625 1.609375 0.59375q0.328125 0.09375 0.765625 0.28125q0.453125 0.171875 0.875 0.46875q0.421875 0.296875 0.6875 0.78125q0.28125 0.484375 0.28125 1.203125q0 0.59375 -0.296875 1.234375q-0.28125 0.625 -1.046875 1.0625q-0.75 0.421875 -2.140625 0.421875zm8.817444 4.484375q-1.25 0 -2.234375 -0.3125q-0.984375 -0.3125 -1.546875 -0.921875q-0.5625 -0.609375 -0.5625 -1.5q0 -0.75 0.421875 -1.28125q0.421875 -0.53125 1.171875 -0.859375q-0.453125 -0.21875 -0.6875 -0.5q-0.21875 -0.296875 -0.21875 -0.65625q0 -0.421875 0.25 -0.765625q0.265625 -0.34375 0.828125 -0.5625q-0.75 -0.46875 -1.171875 -1.28125q-0.40625 -0.8125 -0.40625 -1.796875q0 -1.0 0.4375 -1.796875q0.453125 -0.8125 1.296875 -1.28125q0.84375 -0.484375 2.03125 -0.484375q0.640625 0 1.203125 0.1875q0.5625 0.1875 1.03125 0.515625q0.421875 -0.234375 1.0 -0.390625q0.578125 -0.15625 1.28125 -0.15625q0.046875 0 0.078125 0q0.03125 0 0.078125 0l-0.203125 1.109375q-0.125 0 -0.234375 0q-0.09375 0 -0.203125 0q-0.09375 0 -0.4375 0.03125q-0.328125 0.03125 -0.609375 0.109375q0.390625 0.4375 0.59375 1.0q0.21875 0.546875 0.21875 1.15625q0 1.046875 -0.453125 1.875q-0.453125 0.828125 -1.3125 1.3125q-0.84375 0.46875 -2.03125 0.46875q-0.328125 0 -0.640625 -0.03125q-0.3125 -0.046875 -0.59375 -0.140625q-0.421875 0.140625 -0.421875 0.484375q0 0.21875 0.234375 0.375q0.25 0.140625 0.796875 0.234375l2.4375 0.390625q1.484375 0.234375 2.28125 0.859375q0.8125 0.625 0.8125 1.765625q0 0.953125 -0.5625 1.578125q-0.546875 0.640625 -1.5625 0.953125q-1.015625 0.3125 -2.390625 0.3125zm0.15625 -1.5q1.28125 0 1.96875 -0.328125q0.703125 -0.328125 0.703125 -0.984375q0 -0.5 -0.4375 -0.796875q-0.4375 -0.28125 -1.25 -0.421875l-2.59375 -0.4375q-0.515625 0.21875 -0.90625 0.59375q-0.375 0.375 -0.375 0.875q0 0.796875 0.78125 1.140625q0.796875 0.359375 2.109375 0.359375zm-0.546875 -6.625q1.0625 0 1.625 -0.640625q0.5625 -0.640625 0.5625 -1.65625q0 -0.96875 -0.5625 -1.59375q-0.5625 -0.640625 -1.625 -0.640625q-1.0625 0 -1.609375 0.640625q-0.546875 0.625 -0.546875 1.59375q0 1.015625 0.546875 1.65625q0.546875 0.640625 1.609375 0.640625z" fill-rule="nonzero"/><path fill="#000000" fill-opacity="0.0" d="m278.82016 50.475975c-14.104919 0 -21.15863 13.070866 -28.209808 26.141731c-7.051178 13.070869 -14.099823 26.141731 -28.199646 26.141731" fill-rule="evenodd"/><path stroke="#000000" stroke-width="1.0" stroke-linejoin="round" stroke-linecap="butt" d="m278.82016 50.47597c-14.104919 0 -21.15863 13.070869 -28.209824 26.141735c-3.525589 6.5354385 -7.050537 13.070869 -11.456589 17.972443c-2.203003 2.4507904 -4.626297 4.4931107 -7.380066 5.922737c-1.3768921 0.71481323 -2.83638 1.2764511 -4.3923035 1.6593857c-0.3889618 0.09573364 -0.7839813 0.18030548 -1.1852112 0.2532959c-0.10031128 0.018249512 -0.20100403 0.03578186 -0.3020935 0.052574158l-0.06700134 0.010597229" fill-rule="evenodd"/><path fill="#000000" stroke="#000000" stroke-width="1.0" stroke-linecap="butt" d="m225.82707 102.48875l1.0322418 -1.2098999l-2.9912872 1.3651276l3.1689453 0.87701416z" fill-rule="evenodd"/><path fill="#000000" fill-opacity="0.0" d="m426.7939 93.97204c-10.812347 0 -16.219147 -10.874016 -21.624664 -21.748032c-5.405487 -10.874016 -10.809723 -21.748032 -21.619446 -21.748032" fill-rule="evenodd"/><path stroke="#000000" stroke-width="1.0" stroke-linejoin="round" stroke-linecap="butt" d="m426.7939 93.97204c-10.812317 0 -16.219147 -10.874016 -21.624664 -21.748032c-2.7027588 -5.4370117 -5.405182 -10.87402 -8.783142 -14.951775c-1.6889648 -2.0388756 -3.546814 -3.7379417 -5.6580505 -4.927288c-1.055603 -0.59467316 -2.174591 -1.0619164 -3.3674011 -1.3804893l-0.40570068 -0.101200104" fill-rule="evenodd"/><path fill="#000000" stroke="#000000" stroke-width="1.0" stroke-linecap="butt" d="m386.95496 50.863255l1.2444763 -0.9902954l-3.197052 0.768219l2.942871 1.4665413z" fill-rule="evenodd"/><path fill="#000000" fill-opacity="0.0" d="m426.7939 93.97204c-51.098602 0 -76.64993 2.196846 -102.197174 4.3936996c-25.547241 2.1968536 -51.090393 4.3936996 -102.180786 4.3936996" fill-rule="evenodd"/><path stroke="#000000" stroke-width="1.0" stroke-linejoin="round" stroke-linecap="butt" d="m426.7939 93.97204c-51.09857 0 -76.64993 2.1968536 -102.197174 4.3937073c-12.773621 1.0984192 -25.546204 2.196846 -41.51172 3.020668c-7.982727 0.41190338 -16.763702 0.7551651 -26.742126 0.99544525c-4.9892273 0.120140076 -10.277817 0.21453857 -15.915665 0.27890015c-2.818924 0.032173157 -5.725174 0.056854248 -8.72496 0.07347107c-1.4999084 0.00831604 -3.0231934 0.01461792 -4.5706635 0.018844604l-1.2885742 0.0017471313" fill-rule="evenodd"/><path fill="#000000" stroke="#000000" stroke-width="1.0" stroke-linecap="butt" d="m225.84303 102.754814l1.1230621 -1.1260986l-3.0882416 1.1287537l3.091278 1.1204071z" fill-rule="evenodd"/><path fill="#000000" fill-opacity="0.0" d="m426.7939 93.97204c-12.456696 0 -18.685059 11.645668 -24.913391 23.291336c-6.228363 11.645668 -12.456696 23.291344 -24.913391 23.291344" fill-rule="evenodd"/><path stroke="#000000" stroke-width="1.0" stroke-linejoin="round" stroke-linecap="butt" d="m426.7939 93.97204c-12.456696 0 -18.685028 11.645676 -24.913391 23.291344c-3.1141663 5.82283 -6.2283325 11.64566 -10.121063 16.012787c-1.9463501 2.1835632 -4.0873413 4.0032043 -6.520294 5.276947c-1.2164612 0.63687134 -2.505951 1.1372681 -3.8805237 1.4784698c-0.17184448 0.042633057 -0.34500122 0.08279419 -0.51953125 0.12042236c-0.08721924 0.018814087 -0.1748352 0.037002563 -0.26278687 0.054534912l-0.19619751 0.03756714" fill-rule="evenodd"/><path fill="#000000" stroke="#000000" stroke-width="1.0" stroke-linecap="butt" d="m380.38013 140.24411l1.0180359 -1.221878l-2.9751282 1.3999939l3.1789856 0.83992004z" fill-rule="evenodd"/><path fill="#cdcdce" fill-opacity="0.7673" d="m278.82016 28.727943l104.724396 0l0 43.496063l-104.724396 0z" fill-rule="evenodd"/><path stroke="#000000" stroke-width="1.0" stroke-linejoin="round" stroke-linecap="butt" d="m278.82016 28.727943l104.724396 0l0 43.496063l-104.724396 0z" fill-rule="evenodd"/><path fill="#000000" d="m316.04727 57.395973l1.765625 -13.0625l1.5 0l3.4375 6.484375l3.390625 -6.484375l1.53125 0l1.734375 13.0625l-1.859375 0l-1.328125 -10.65625l0.46875 0.078125l-3.921875 7.484375l-3.984375 -7.484375l0.453125 -0.078125l-1.3125 10.65625l-1.875 0zm17.880646 0.1875q-1.21875 0 -2.015625 -0.28125q-0.796875 -0.296875 -1.125 -0.515625l0.203125 -1.625q0.296875 0.25 1.046875 0.59375q0.765625 0.328125 1.8125 0.328125q0.890625 0 1.359375 -0.296875q0.46875 -0.296875 0.46875 -0.828125q0 -0.484375 -0.3125 -0.765625q-0.296875 -0.296875 -0.71875 -0.46875q-0.421875 -0.1875 -0.796875 -0.28125q-0.625 -0.171875 -1.296875 -0.421875q-0.65625 -0.265625 -1.125 -0.765625q-0.453125 -0.515625 -0.453125 -1.4375q0 -0.703125 0.328125 -1.328125q0.34375 -0.640625 1.09375 -1.03125q0.765625 -0.390625 2.015625 -0.390625q0.90625 0 1.484375 0.1875q0.578125 0.1875 1.0 0.40625l-0.203125 1.53125q-0.40625 -0.328125 -0.9375 -0.5625q-0.53125 -0.234375 -1.3125 -0.234375q-0.78125 0 -1.28125 0.296875q-0.484375 0.28125 -0.484375 0.9375q0 0.640625 0.515625 0.90625q0.53125 0.265625 1.609375 0.59375q0.328125 0.09375 0.765625 0.28125q0.453125 0.171875 0.875 0.46875q0.421875 0.296875 0.6875 0.78125q0.28125 0.484375 0.28125 1.203125q0 0.59375 -0.296875 1.234375q-0.28125 0.625 -1.046875 1.0625q-0.75 0.421875 -2.140625 0.421875zm8.817444 4.484375q-1.25 0 -2.234375 -0.3125q-0.984375 -0.3125 -1.546875 -0.921875q-0.5625 -0.609375 -0.5625 -1.5q0 -0.75 0.421875 -1.28125q0.421875 -0.53125 1.171875 -0.859375q-0.453125 -0.21875 -0.6875 -0.5q-0.21875 -0.296875 -0.21875 -0.65625q0 -0.421875 0.25 -0.765625q0.265625 -0.34375 0.828125 -0.5625q-0.75 -0.46875 -1.171875 -1.28125q-0.40625 -0.8125 -0.40625 -1.796875q0 -1.0 0.4375 -1.796875q0.453125 -0.8125 1.296875 -1.28125q0.84375 -0.484375 2.03125 -0.484375q0.640625 0 1.203125 0.1875q0.5625 0.1875 1.03125 0.515625q0.421875 -0.234375 1.0 -0.390625q0.578125 -0.15625 1.28125 -0.15625q0.046875 0 0.078125 0q0.03125 0 0.078125 0l-0.203125 1.109375q-0.125 0 -0.234375 0q-0.09375 0 -0.203125 0q-0.09375 0 -0.4375 0.03125q-0.328125 0.03125 -0.609375 0.109375q0.390625 0.4375 0.59375 1.0q0.21875 0.546875 0.21875 1.15625q0 1.046875 -0.453125 1.875q-0.453125 0.828125 -1.3125 1.3125q-0.84375 0.46875 -2.03125 0.46875q-0.328125 0 -0.640625 -0.03125q-0.3125 -0.046875 -0.59375 -0.140625q-0.421875 0.140625 -0.421875 0.484375q0 0.21875 0.234375 0.375q0.25 0.140625 0.796875 0.234375l2.4375 0.390625q1.484375 0.234375 2.28125 0.859375q0.8125 0.625 0.8125 1.765625q0 0.953125 -0.5625 1.578125q-0.546875 0.640625 -1.5625 0.953125q-1.015625 0.3125 -2.390625 0.3125zm0.15625 -1.5q1.28125 0 1.96875 -0.328125q0.703125 -0.328125 0.703125 -0.984375q0 -0.5 -0.4375 -0.796875q-0.4375 -0.28125 -1.25 -0.421875l-2.59375 -0.4375q-0.515625 0.21875 -0.90625 0.59375q-0.375 0.375 -0.375 0.875q0 0.796875 0.78125 1.140625q0.796875 0.359375 2.109375 0.359375zm-0.546875 -6.625q1.0625 0 1.625 -0.640625q0.5625 -0.640625 0.5625 -1.65625q0 -0.96875 -0.5625 -1.59375q-0.5625 -0.640625 -1.625 -0.640625q-1.0625 0 -1.609375 0.640625q-0.546875 0.625 -0.546875 1.59375q0 1.015625 0.546875 1.65625q0.546875 0.640625 1.609375 0.640625z" fill-rule="nonzero"/><path fill="#cdcdce" fill-opacity="0.7673" d="m607.52356 113.281746l104.72443 0l0 43.49607l-104.72443 0z" fill-rule="evenodd"/><path stroke="#000000" stroke-width="1.0" stroke-linejoin="round" stroke-linecap="butt" d="m607.52356 113.281746l104.72443 0l0 43.49607l-104.72443 0z" fill-rule="evenodd"/><path fill="#000000" d="m644.7507 141.94978l1.765625 -13.0625l1.5 0l3.4375 6.484375l3.390625 -6.484375l1.53125 0l1.734375 13.0625l-1.859375 0l-1.328125 -10.65625l0.46875 0.078125l-3.921875 7.484375l-3.984375 -7.484375l0.453125 -0.078125l-1.3125 10.65625l-1.875 0zm17.880676 0.1875q-1.21875 0 -2.015625 -0.28125q-0.796875 -0.296875 -1.125 -0.515625l0.203125 -1.625q0.296875 0.25 1.046875 0.59375q0.765625 0.328125 1.8125 0.328125q0.890625 0 1.359375 -0.296875q0.46875 -0.296875 0.46875 -0.828125q0 -0.484375 -0.3125 -0.765625q-0.296875 -0.296875 -0.71875 -0.46875q-0.421875 -0.1875 -0.796875 -0.28125q-0.625 -0.171875 -1.296875 -0.421875q-0.65625 -0.265625 -1.125 -0.765625q-0.453125 -0.515625 -0.453125 -1.4375q0 -0.703125 0.328125 -1.328125q0.34375 -0.640625 1.09375 -1.03125q0.765625 -0.390625 2.015625 -0.390625q0.90625 0 1.484375 0.1875q0.578125 0.1875 1.0 0.40625l-0.203125 1.53125q-0.40625 -0.328125 -0.9375 -0.5625q-0.53125 -0.234375 -1.3125 -0.234375q-0.78125 0 -1.28125 0.296875q-0.484375 0.28125 -0.484375 0.9375q0 0.640625 0.515625 0.90625q0.53125 0.265625 1.609375 0.59375q0.328125 0.09375 0.765625 0.28125q0.453125 0.171875 0.875 0.46875q0.421875 0.296875 0.6875 0.78125q0.28125 0.484375 0.28125 1.203125q0 0.59375 -0.296875 1.234375q-0.28125 0.625 -1.046875 1.0625q-0.75 0.421875 -2.140625 0.421875zm8.817444 4.484375q-1.25 0 -2.234375 -0.3125q-0.984375 -0.3125 -1.546875 -0.921875q-0.5625 -0.609375 -0.5625 -1.5q0 -0.75 0.421875 -1.28125q0.421875 -0.53125 1.171875 -0.859375q-0.453125 -0.21875 -0.6875 -0.5q-0.21875 -0.296875 -0.21875 -0.65625q0 -0.421875 0.25 -0.765625q0.265625 -0.34375 0.828125 -0.5625q-0.75 -0.46875 -1.171875 -1.28125q-0.40625 -0.8125 -0.40625 -1.796875q0 -1.0 0.4375 -1.796875q0.453125 -0.8125 1.296875 -1.28125q0.84375 -0.484375 2.03125 -0.484375q0.640625 0 1.203125 0.1875q0.5625 0.1875 1.03125 0.515625q0.421875 -0.234375 1.0 -0.390625q0.578125 -0.15625 1.28125 -0.15625q0.046875 0 0.078125 0q0.03125 0 0.078125 0l-0.203125 1.109375q-0.125 0 -0.234375 0q-0.09375 0 -0.203125 0q-0.09375 0 -0.4375 0.03125q-0.328125 0.03125 -0.609375 0.109375q0.390625 0.4375 0.59375 1.0q0.21875 0.546875 0.21875 1.15625q0 1.046875 -0.453125 1.875q-0.453125 0.828125 -1.3125 1.3125q-0.84375 0.46875 -2.03125 0.46875q-0.328125 0 -0.640625 -0.03125q-0.3125 -0.046875 -0.59375 -0.140625q-0.421875 0.140625 -0.421875 0.484375q0 0.21875 0.234375 0.375q0.25 0.140625 0.796875 0.234375l2.4375 0.390625q1.484375 0.234375 2.28125 0.859375q0.8125 0.625 0.8125 1.765625q0 0.953125 -0.5625 1.578125q-0.546875 0.640625 -1.5625 0.953125q-1.015625 0.3125 -2.390625 0.3125zm0.15625 -1.5q1.28125 0 1.96875 -0.328125q0.703125 -0.328125 0.703125 -0.984375q0 -0.5 -0.4375 -0.796875q-0.4375 -0.28125 -1.25 -0.421875l-2.59375 -0.4375q-0.515625 0.21875 -0.90625 0.59375q-0.375 0.375 -0.375 0.875q0 0.796875 0.78125 1.140625q0.796875 0.359375 2.109375 0.359375zm-0.546875 -6.625q1.0625 0 1.625 -0.640625q0.5625 -0.640625 0.5625 -1.65625q0 -0.96875 -0.5625 -1.59375q-0.5625 -0.640625 -1.625 -0.640625q-1.0625 0 -1.609375 0.640625q-0.546875 0.625 -0.546875 1.59375q0 1.015625 0.546875 1.65625q0.546875 0.640625 1.609375 0.640625z" fill-rule="nonzero"/><path fill="#000000" fill-opacity="0.0" d="m607.52356 135.02979c-19.00116 0 -28.502258 -10.267723 -38.00226 -20.535439c-9.5 -10.267715 -18.998901 -20.53543 -37.99774 -20.53543" fill-rule="evenodd"/><path stroke="#000000" stroke-width="1.0" stroke-linejoin="round" stroke-linecap="butt" d="m607.52356 135.02979c-19.001099 0 -28.502258 -10.267715 -38.00226 -20.53543c-4.75 -5.1338654 -9.499756 -10.267723 -15.436829 -14.118111c-2.9685059 -1.9252014 -6.2338867 -3.5295334 -9.944519 -4.652565c-1.8554077 -0.5615158 -3.8220215 -1.0027008 -5.918579 -1.3035126c-1.0482788 -0.15040588 -2.1289673 -0.26572418 -3.2445068 -0.3434372l-0.028198242 -0.001701355" fill-rule="evenodd"/><path fill="#000000" stroke="#000000" stroke-width="1.0" stroke-linecap="butt" d="m534.9487 94.07503l1.1619873 -1.0858383l-3.1260986 1.0192566l3.0499268 1.2286224z" fill-rule="evenodd"/><path fill="#000000" fill-opacity="0.0" d="m607.52356 135.02979c-55.994385 0 -83.992676 -21.141739 -111.98874 -42.28347c-27.996063 -21.141731 -55.98987 -42.283463 -111.97977 -42.283463" fill-rule="evenodd"/><path stroke="#000000" stroke-width="1.0" stroke-linejoin="round" stroke-linecap="butt" d="m607.52356 135.02979c-55.994385 0 -83.992676 -21.141731 -111.98874 -42.283463c-13.998047 -10.570869 -27.995483 -21.141739 -45.492218 -29.06989c-8.748322 -3.964077 -18.37146 -7.2674713 -29.306915 -9.579849c-5.4677124 -1.156189 -11.263489 -2.064621 -17.442047 -2.6840096c-3.0892334 -0.30968857 -6.274231 -0.54712677 -9.561737 -0.70713425c-1.6437378 -0.07999802 -3.3130493 -0.14064789 -5.0089417 -0.1812973c-0.4239502 -0.0101623535 -0.8496094 -0.019073486 -1.276886 -0.026725769l-0.4640503 -0.0069122314" fill-rule="evenodd"/><path fill="#000000" stroke="#000000" stroke-width="1.0" stroke-linecap="butt" d="m386.98206 50.49051l1.133606 -1.1154709l-3.0987244 1.0996094l3.080597 1.1494827z" fill-rule="evenodd"/><path fill="#cdcdce" fill-opacity="0.7673" d="m426.7939 72.22401l104.724396 0l0 43.496063l-104.724396 0z" fill-rule="evenodd"/><path stroke="#000000" stroke-width="1.0" stroke-linejoin="round" stroke-linecap="butt" d="m426.7939 72.22401l104.724396 0l0 43.496063l-104.724396 0z" fill-rule="evenodd"/><path fill="#000000" d="m464.02103 100.89204l1.765625 -13.0625l1.5 0l3.4375 6.484375l3.390625 -6.484375l1.53125 0l1.734375 13.0625l-1.859375 0l-1.328125 -10.65625l0.46875 0.078125l-3.921875 7.484375l-3.984375 -7.484375l0.453125 -0.078125l-1.3125 10.65625l-1.875 0zm17.880646 0.1875q-1.21875 0 -2.015625 -0.28125q-0.796875 -0.296875 -1.125 -0.515625l0.203125 -1.625q0.296875 0.25 1.046875 0.59375q0.765625 0.328125 1.8125 0.328125q0.890625 0 1.359375 -0.296875q0.46875 -0.296875 0.46875 -0.828125q0 -0.484375 -0.3125 -0.765625q-0.296875 -0.296875 -0.71875 -0.46875q-0.421875 -0.1875 -0.796875 -0.28125q-0.625 -0.171875 -1.296875 -0.421875q-0.65625 -0.265625 -1.125 -0.765625q-0.453125 -0.515625 -0.453125 -1.4375q0 -0.703125 0.328125 -1.328125q0.34375 -0.640625 1.09375 -1.03125q0.765625 -0.390625 2.015625 -0.390625q0.90625 0 1.484375 0.1875q0.578125 0.1875 1.0 0.40625l-0.203125 1.53125q-0.40625 -0.328125 -0.9375 -0.5625q-0.53125 -0.234375 -1.3125 -0.234375q-0.78125 0 -1.28125 0.296875q-0.484375 0.28125 -0.484375 0.9375q0 0.640625 0.515625 0.90625q0.53125 0.265625 1.609375 0.59375q0.328125 0.09375 0.765625 0.28125q0.453125 0.171875 0.875 0.46875q0.421875 0.296875 0.6875 0.78125q0.28125 0.484375 0.28125 1.203125q0 0.59375 -0.296875 1.234375q-0.28125 0.625 -1.046875 1.0625q-0.75 0.421875 -2.140625 0.421875zm8.817444 4.484375q-1.25 0 -2.234375 -0.3125q-0.984375 -0.3125 -1.546875 -0.921875q-0.5625 -0.609375 -0.5625 -1.5q0 -0.75 0.421875 -1.28125q0.421875 -0.53125 1.171875 -0.859375q-0.453125 -0.21875 -0.6875 -0.5q-0.21875 -0.296875 -0.21875 -0.65625q0 -0.421875 0.25 -0.765625q0.265625 -0.34375 0.828125 -0.5625q-0.75 -0.46875 -1.171875 -1.28125q-0.40625 -0.8125 -0.40625 -1.796875q0 -1.0 0.4375 -1.796875q0.453125 -0.8125 1.296875 -1.28125q0.84375 -0.484375 2.03125 -0.484375q0.640625 0 1.203125 0.1875q0.5625 0.1875 1.03125 0.515625q0.421875 -0.234375 1.0 -0.390625q0.578125 -0.15625 1.28125 -0.15625q0.046875 0 0.078125 0q0.03125 0 0.078125 0l-0.203125 1.109375q-0.125 0 -0.234375 0q-0.09375 0 -0.203125 0q-0.09375 0 -0.4375 0.03125q-0.328125 0.03125 -0.609375 0.109375q0.390625 0.4375 0.59375 1.0q0.21875 0.546875 0.21875 1.15625q0 1.046875 -0.453125 1.875q-0.453125 0.828125 -1.3125 1.3125q-0.84375 0.46875 -2.03125 0.46875q-0.328125 0 -0.640625 -0.03125q-0.3125 -0.046875 -0.59375 -0.140625q-0.421875 0.140625 -0.421875 0.484375q0 0.21875 0.234375 0.375q0.25 0.140625 0.796875 0.234375l2.4375 0.390625q1.484375 0.234375 2.28125 0.859375q0.8125 0.625 0.8125 1.765625q0 0.953125 -0.5625 1.578125q-0.546875 0.640625 -1.5625 0.953125q-1.015625 0.3125 -2.390625 0.3125zm0.15625 -1.5q1.28125 0 1.96875 -0.328125q0.703125 -0.328125 0.703125 -0.984375q0 -0.5 -0.4375 -0.796875q-0.4375 -0.28125 -1.25 -0.421875l-2.59375 -0.4375q-0.515625 0.21875 -0.90625 0.59375q-0.375 0.375 -0.375 0.875q0 0.796875 0.78125 1.140625q0.796875 0.359375 2.109375 0.359375zm-0.546875 -6.625q1.0625 0 1.625 -0.640625q0.5625 -0.640625 0.5625 -1.65625q0 -0.96875 -0.5625 -1.59375q-0.5625 -0.640625 -1.625 -0.640625q-1.0625 0 -1.609375 0.640625q-0.546875 0.625 -0.546875 1.59375q0 1.015625 0.546875 1.65625q0.546875 0.640625 1.609375 0.640625z" fill-rule="nonzero"/><path fill="#000000" fill-opacity="0.0" d="m607.52356 135.02979c-57.638916 0 -86.458984 1.377945 -115.27789 2.7559052c-28.818909 1.377945 -57.636658 2.7559052 -115.273285 2.7559052" fill-rule="evenodd"/><path stroke="#000000" stroke-width="1.0" stroke-linejoin="round" stroke-linecap="butt" d="m607.52356 135.02979c-57.638977 0 -86.458984 1.377945 -115.27789 2.7559052c-14.409454 0.6889801 -28.818634 1.377945 -46.829987 1.8946838c-9.005707 0.25836182 -18.911957 0.4736786 -30.169037 0.62438965c-5.6285706 0.0753479 -11.594818 0.13456726 -17.955109 0.17494202c-3.1801453 0.02017212 -6.4587708 0.03565979 -9.842957 0.046081543c-1.6921082 0.005203247 -3.410553 0.009170532 -5.156311 0.011810303l-1.8927917 0.0014190674" fill-rule="evenodd"/><path fill="#000000" stroke="#000000" stroke-width="1.0" stroke-linecap="butt" d="m380.39948 140.53902l1.1237488 -1.1254272l-3.0889282 1.1269073l3.0906067 1.1222687z" fill-rule="evenodd"/><path fill="#cdcdce" fill-opacity="0.7673" d="m752.0538 80.352615l104.724365 0l0 43.496063l-104.724365 0z" fill-rule="evenodd"/><path stroke="#000000" stroke-width="1.0" stroke-linejoin="round" stroke-linecap="butt" d="m752.0538 80.352615l104.724365 0l0 43.496063l-104.724365 0z" fill-rule="evenodd"/><path fill="#000000" d="m789.2809 109.020645l1.765625 -13.0625l1.5 0l3.4375 6.484375l3.390625 -6.484375l1.53125 0l1.734375 13.0625l-1.859375 0l-1.328125 -10.65625l0.46875 0.078125l-3.921875 7.484375l-3.984375 -7.484375l0.453125 -0.078125l-1.3125 10.65625l-1.875 0zm17.880615 0.1875q-1.21875 0 -2.015625 -0.28125q-0.796875 -0.296875 -1.125 -0.515625l0.203125 -1.625q0.296875 0.25 1.046875 0.59375q0.765625 0.328125 1.8125 0.328125q0.890625 0 1.359375 -0.296875q0.46875 -0.296875 0.46875 -0.828125q0 -0.484375 -0.3125 -0.765625q-0.296875 -0.296875 -0.71875 -0.46875q-0.421875 -0.1875 -0.796875 -0.28125q-0.625 -0.171875 -1.296875 -0.421875q-0.65625 -0.265625 -1.125 -0.765625q-0.453125 -0.515625 -0.453125 -1.4375q0 -0.703125 0.328125 -1.328125q0.34375 -0.640625 1.09375 -1.03125q0.765625 -0.390625 2.015625 -0.390625q0.90625 0 1.484375 0.1875q0.578125 0.1875 1.0 0.40625l-0.203125 1.53125q-0.40625 -0.328125 -0.9375 -0.5625q-0.53125 -0.234375 -1.3125 -0.234375q-0.78125 0 -1.28125 0.296875q-0.484375 0.28125 -0.484375 0.9375q0 0.640625 0.515625 0.90625q0.53125 0.265625 1.609375 0.59375q0.328125 0.09375 0.765625 0.28125q0.453125 0.171875 0.875 0.46875q0.421875 0.296875 0.6875 0.78125q0.28125 0.484375 0.28125 1.203125q0 0.59375 -0.296875 1.234375q-0.28125 0.625 -1.046875 1.0625q-0.75 0.421875 -2.140625 0.421875zm8.817444 4.484375q-1.25 0 -2.234375 -0.3125q-0.984375 -0.3125 -1.546875 -0.921875q-0.5625 -0.609375 -0.5625 -1.5q0 -0.75 0.421875 -1.28125q0.421875 -0.53125 1.171875 -0.859375q-0.453125 -0.21875 -0.6875 -0.5q-0.21875 -0.296875 -0.21875 -0.65625q0 -0.421875 0.25 -0.765625q0.265625 -0.34375 0.828125 -0.5625q-0.75 -0.46875 -1.171875 -1.28125q-0.40625 -0.8125 -0.40625 -1.796875q0 -1.0 0.4375 -1.796875q0.453125 -0.8125 1.296875 -1.28125q0.84375 -0.484375 2.03125 -0.484375q0.640625 0 1.203125 0.1875q0.5625 0.1875 1.03125 0.515625q0.421875 -0.234375 1.0 -0.390625q0.578125 -0.15625 1.28125 -0.15625q0.046875 0 0.078125 0q0.03125 0 0.078125 0l-0.203125 1.109375q-0.125 0 -0.234375 0q-0.09375 0 -0.203125 0q-0.09375 0 -0.4375 0.03125q-0.328125 0.03125 -0.609375 0.109375q0.390625 0.4375 0.59375 1.0q0.21875 0.546875 0.21875 1.15625q0 1.046875 -0.453125 1.875q-0.453125 0.828125 -1.3125 1.3125q-0.84375 0.46875 -2.03125 0.46875q-0.328125 0 -0.640625 -0.03125q-0.3125 -0.046875 -0.59375 -0.140625q-0.421875 0.140625 -0.421875 0.484375q0 0.21875 0.234375 0.375q0.25 0.140625 0.796875 0.234375l2.4375 0.390625q1.484375 0.234375 2.28125 0.859375q0.8125 0.625 0.8125 1.765625q0 0.953125 -0.5625 1.578125q-0.546875 0.640625 -1.5625 0.953125q-1.015625 0.3125 -2.390625 0.3125zm0.15625 -1.5q1.28125 0 1.96875 -0.328125q0.703125 -0.328125 0.703125 -0.984375q0 -0.5 -0.4375 -0.796875q-0.4375 -0.28125 -1.25 -0.421875l-2.59375 -0.4375q-0.515625 0.21875 -0.90625 0.59375q-0.375 0.375 -0.375 0.875q0 0.796875 0.78125 1.140625q0.796875 0.359375 2.109375 0.359375zm-0.546875 -6.625q1.0625 0 1.625 -0.640625q0.5625 -0.640625 0.5625 -1.65625q0 -0.96875 -0.5625 -1.59375q-0.5625 -0.640625 -1.625 -0.640625q-1.0625 0 -1.609375 0.640625q-0.546875 0.625 -0.546875 1.59375q0 1.015625 0.546875 1.65625q0.546875 0.640625 1.609375 0.640625z" fill-rule="nonzero"/><path fill="#000000" fill-opacity="0.0" d="m752.0538 102.10065c-55.13391 0 -82.700806 -2.0314941 -110.26776 -4.062996c-27.566895 -2.0314941 -55.13385 -4.0629883 -110.2677 -4.0629883" fill-rule="evenodd"/><path stroke="#000000" stroke-width="1.0" stroke-linejoin="round" stroke-linecap="butt" d="m752.0537 102.10065c-55.13385 0 -82.700745 -2.0314941 -110.26764 -4.0629883c-13.783508 -1.0157471 -27.566956 -2.0314941 -44.796265 -2.7933044c-8.614685 -0.38090515 -18.09082 -0.69833374 -28.85913 -0.9205246c-5.3842163 -0.11109924 -11.09137 -0.19838715 -17.175476 -0.25790405c-3.0421143 -0.029754639 -6.178406 -0.052574158 -9.415588 -0.06794739c-1.6185913 -0.0076904297 -3.2624512 -0.013519287 -4.932434 -0.017425537l-1.6617432 -0.0019226074" fill-rule="evenodd"/><path fill="#000000" stroke="#000000" stroke-width="1.0" stroke-linecap="butt" d="m534.94543 93.97863l1.1258545 -1.1232758l-3.0910645 1.1210022l3.088501 1.1281586z" fill-rule="evenodd"/><path fill="#000000" fill-opacity="0.0" d="m752.0538 102.10065c-19.902771 0 -29.852722 -12.90551 -39.80548 -25.811028c-9.952759 -12.90551 -19.908325 -25.81102 -39.81659 -25.81102" fill-rule="evenodd"/><path stroke="#000000" stroke-width="1.0" stroke-linejoin="round" stroke-linecap="butt" d="m752.0537 102.10065c-19.90271 0 -29.852661 -12.90551 -39.80542 -25.811028c-4.9763794 -6.452751 -9.953491 -12.90551 -16.174988 -17.745075c-3.1107788 -2.4197845 -6.532593 -4.4362717 -10.421082 -5.8478127c-1.9442139 -0.7057686 -4.005066 -1.2603035 -6.2020264 -1.6383934c-1.0984497 -0.18904877 -2.230957 -0.33398056 -3.3999023 -0.43165588l-0.1940918 -0.015174866" fill-rule="evenodd"/><path fill="#000000" stroke="#000000" stroke-width="1.0" stroke-linecap="butt" d="m675.8562 50.611507l1.1673584 -1.0801201l-3.1310425 1.0039062l3.0438232 1.2435684z" fill-rule="evenodd"/><path fill="#000000" fill-opacity="0.0" d="m752.0538 102.10065c-92.12787 0 -138.19269 -12.90551 -184.25568 -25.811028c-46.06299 -12.90551 -92.124146 -25.81102 -184.24829 -25.81102" fill-rule="evenodd"/><path stroke="#000000" stroke-width="1.0" stroke-linejoin="round" stroke-linecap="butt" d="m752.0537 102.10065c-92.12775 0 -138.19263 -12.90551 -184.25562 -25.811028c-23.031494 -6.452751 -46.06256 -12.90551 -74.8512 -17.745075c-14.394318 -2.4197845 -30.228119 -4.4362717 -48.22101 -5.8478127c-8.9964905 -0.7057686 -18.532745 -1.2603035 -28.69873 -1.6383934c-5.083008 -0.18904877 -10.323456 -0.33398056 -15.7326355 -0.43165588c-2.7045593 -0.048835754 -5.4512634 -0.08585739 -8.241608 -0.11066818c-1.3951416 -0.0124053955 -2.8012085 -0.021759033 -4.2183228 -0.028015137l-0.85769653 -0.0028305054" fill-rule="evenodd"/><path fill="#000000" stroke="#000000" stroke-width="1.0" stroke-linecap="butt" d="m386.9769 50.48517l1.1267395 -1.1224251l-3.091919 1.1186562l3.087616 1.1305084z" fill-rule="evenodd"/><path fill="#cdcdce" fill-opacity="0.7673" d="m567.7178 28.727943l104.72443 0l0 43.496063l-104.72443 0z" fill-rule="evenodd"/><path stroke="#000000" stroke-width="1.0" stroke-linejoin="round" stroke-linecap="butt" d="m567.7178 28.727943l104.72443 0l0 43.496063l-104.72443 0z" fill-rule="evenodd"/><path fill="#000000" d="m604.94495 57.395973l1.765625 -13.0625l1.5 0l3.4375 6.484375l3.390625 -6.484375l1.53125 0l1.734375 13.0625l-1.859375 0l-1.328125 -10.65625l0.46875 0.078125l-3.921875 7.484375l-3.984375 -7.484375l0.453125 -0.078125l-1.3125 10.65625l-1.875 0zm17.880615 0.1875q-1.21875 0 -2.015625 -0.28125q-0.796875 -0.296875 -1.125 -0.515625l0.203125 -1.625q0.296875 0.25 1.046875 0.59375q0.765625 0.328125 1.8125 0.328125q0.890625 0 1.359375 -0.296875q0.46875 -0.296875 0.46875 -0.828125q0 -0.484375 -0.3125 -0.765625q-0.296875 -0.296875 -0.71875 -0.46875q-0.421875 -0.1875 -0.796875 -0.28125q-0.625 -0.171875 -1.296875 -0.421875q-0.65625 -0.265625 -1.125 -0.765625q-0.453125 -0.515625 -0.453125 -1.4375q0 -0.703125 0.328125 -1.328125q0.34375 -0.640625 1.09375 -1.03125q0.765625 -0.390625 2.015625 -0.390625q0.90625 0 1.484375 0.1875q0.578125 0.1875 1.0 0.40625l-0.203125 1.53125q-0.40625 -0.328125 -0.9375 -0.5625q-0.53125 -0.234375 -1.3125 -0.234375q-0.78125 0 -1.28125 0.296875q-0.484375 0.28125 -0.484375 0.9375q0 0.640625 0.515625 0.90625q0.53125 0.265625 1.609375 0.59375q0.328125 0.09375 0.765625 0.28125q0.453125 0.171875 0.875 0.46875q0.421875 0.296875 0.6875 0.78125q0.28125 0.484375 0.28125 1.203125q0 0.59375 -0.296875 1.234375q-0.28125 0.625 -1.046875 1.0625q-0.75 0.421875 -2.140625 0.421875zm8.817444 4.484375q-1.25 0 -2.234375 -0.3125q-0.984375 -0.3125 -1.546875 -0.921875q-0.5625 -0.609375 -0.5625 -1.5q0 -0.75 0.421875 -1.28125q0.421875 -0.53125 1.171875 -0.859375q-0.453125 -0.21875 -0.6875 -0.5q-0.21875 -0.296875 -0.21875 -0.65625q0 -0.421875 0.25 -0.765625q0.265625 -0.34375 0.828125 -0.5625q-0.75 -0.46875 -1.171875 -1.28125q-0.40625 -0.8125 -0.40625 -1.796875q0 -1.0 0.4375 -1.796875q0.453125 -0.8125 1.296875 -1.28125q0.84375 -0.484375 2.03125 -0.484375q0.640625 0 1.203125 0.1875q0.5625 0.1875 1.03125 0.515625q0.421875 -0.234375 1.0 -0.390625q0.578125 -0.15625 1.28125 -0.15625q0.046875 0 0.078125 0q0.03125 0 0.078125 0l-0.203125 1.109375q-0.125 0 -0.234375 0q-0.09375 0 -0.203125 0q-0.09375 0 -0.4375 0.03125q-0.328125 0.03125 -0.609375 0.109375q0.390625 0.4375 0.59375 1.0q0.21875 0.546875 0.21875 1.15625q0 1.046875 -0.453125 1.875q-0.453125 0.828125 -1.3125 1.3125q-0.84375 0.46875 -2.03125 0.46875q-0.328125 0 -0.640625 -0.03125q-0.3125 -0.046875 -0.59375 -0.140625q-0.421875 0.140625 -0.421875 0.484375q0 0.21875 0.234375 0.375q0.25 0.140625 0.796875 0.234375l2.4375 0.390625q1.484375 0.234375 2.28125 0.859375q0.8125 0.625 0.8125 1.765625q0 0.953125 -0.5625 1.578125q-0.546875 0.640625 -1.5625 0.953125q-1.015625 0.3125 -2.390625 0.3125zm0.15625 -1.5q1.28125 0 1.96875 -0.328125q0.703125 -0.328125 0.703125 -0.984375q0 -0.5 -0.4375 -0.796875q-0.4375 -0.28125 -1.25 -0.421875l-2.59375 -0.4375q-0.515625 0.21875 -0.90625 0.59375q-0.375 0.375 -0.375 0.875q0 0.796875 0.78125 1.140625q0.796875 0.359375 2.109375 0.359375zm-0.546875 -6.625q1.0625 0 1.625 -0.640625q0.5625 -0.640625 0.5625 -1.65625q0 -0.96875 -0.5625 -1.59375q-0.5625 -0.640625 -1.625 -0.640625q-1.0625 0 -1.609375 0.640625q-0.546875 0.625 -0.546875 1.59375q0 1.015625 0.546875 1.65625q0.546875 0.640625 1.609375 0.640625z" fill-rule="nonzero"/></g></svg>